<?xml version="1.0" encoding="UTF-8"?>
<svg version="1.1" xmlns="http://www.w3.org/2000/svg" width="2001" height="2001">
<path d="M0 0 C4.25672722 0.58445117 7.90786786 1.59742128 11.8828125 3.21728516 C13.03064209 3.6810556 14.17847168 4.14482605 15.36108398 4.62265015 C16.61572917 5.13643837 17.87036762 5.65024302 19.125 6.1640625 C20.45553499 6.70353047 21.78635278 7.24230141 23.11743164 7.78042603 C25.95208075 8.92678963 28.78565235 10.07576378 31.61865234 11.22619629 C38.13674458 13.86930002 44.6722541 16.46874105 51.20641708 19.0717907 C54.99274985 20.58074657 58.77786491 22.09274985 62.56298828 23.60473633 C63.32974947 23.9110048 64.09651066 24.21727327 64.88650703 24.53282261 C110.31357852 42.6796996 155.65283199 61.02981814 200.81005859 79.83984375 C205.33888254 81.72581975 209.87006348 83.60607336 214.4017334 85.48519897 C244.50803812 97.97096771 274.5159869 110.67975476 304.48284912 123.49627686 C308.04882457 125.02087446 311.61538885 126.54408662 315.18212891 128.06689453 C344.33671411 140.51536571 373.44692042 153.05415077 402.44207764 165.86981201 C405.12130596 167.05359762 407.8010588 168.23618881 410.48095703 169.41845703 C420.54315357 173.85752817 430.60252029 178.30288903 440.65830994 182.75645447 C445.28993443 184.80615774 449.92576314 186.84569587 454.56826782 188.87063599 C456.52773217 189.72559851 458.4859955 190.58324752 460.44384766 191.44189453 C462.73533521 192.44589519 465.02911973 193.44467763 467.32568359 194.43701172 C468.80415771 195.08694092 468.80415771 195.08694092 470.3125 195.75 C471.15425781 196.11609375 471.99601562 196.4821875 472.86328125 196.859375 C475.0060272 198.00321745 476.39560937 199.19311346 478 201 C477.52433594 201.33128906 477.04867188 201.66257812 476.55859375 202.00390625 C471.00251695 206.08654832 465.88908446 210.65305531 460.875 215.375 C460.18720459 215.98674072 459.49940918 216.59848145 458.79077148 217.22875977 C458.15598877 217.84162842 457.52120605 218.45449707 456.8671875 219.0859375 C456.29081543 219.6226709 455.71444336 220.1594043 455.12060547 220.71240234 C452.24777718 226.57697774 455.48327487 234.32400413 457.44140625 240.171875 C457.80688568 241.30118439 457.80688568 241.30118439 458.17974854 242.45330811 C458.69947206 244.05874218 459.22261068 245.66307419 459.74893188 247.26635742 C461.13177921 251.48788285 462.4801823 255.72034801 463.828125 259.953125 C464.09845047 260.80124756 464.36877594 261.64937012 464.64729309 262.52319336 C467.17202021 270.47809397 469.55118702 278.46648398 471.8125 286.5 C472.15547119 287.68432617 472.49844238 288.86865234 472.85180664 290.08886719 C473.30608032 291.73097168 473.30608032 291.73097168 473.76953125 293.40625 C474.03354736 294.34791016 474.29756348 295.28957031 474.56958008 296.25976562 C475.56741144 302.61238002 473.01673774 307.52941147 470.21459961 313.02490234 C469.82431076 313.80606415 469.43402191 314.58722595 469.03190613 315.39205933 C467.74627112 317.96055355 466.44941174 320.52320054 465.15234375 323.0859375 C464.25626476 324.87063139 463.36089389 326.65568099 462.46620178 328.44107056 C460.11414603 333.12993937 457.75251869 337.81392269 455.38885498 342.49694824 C452.97673631 347.28020421 450.57371575 352.0680254 448.16992188 356.85546875 C443.45549999 366.24146557 438.73095211 375.62232554 434 385 C430.83518707 383.77134028 428.20712442 382.60988549 425.5234375 380.5234375 C424.86730469 380.02602051 424.21117187 379.52860352 423.53515625 379.01611328 C422.82230469 378.4745459 422.10945313 377.93297852 421.375 377.375 C410.05424228 369.00019071 397.91505287 362.02160542 385.73284912 354.99926758 C382.93052184 353.38327299 380.13168853 351.76123962 377.33203125 350.140625 C373.00193416 347.63757037 368.66811909 345.1410978 364.33203125 342.6484375 C358.20646295 339.12429192 352.10091829 335.56660576 346 332 C337.72229692 327.16310691 329.43003474 322.35231106 321.125 317.5625 C320.06289307 316.94858398 319.00078613 316.33466797 317.90649414 315.70214844 C312.77434575 312.73854069 307.6356402 309.78800858 302.47442627 306.87535095 C300.04450088 305.50298459 297.61837895 304.1239736 295.19256592 302.74435425 C293.4688299 301.76775034 291.7395831 300.80089372 290.01025391 299.83422852 C288.97433105 299.24440186 287.9384082 298.6545752 286.87109375 298.046875 C285.95255615 297.52963867 285.03401855 297.01240234 284.08764648 296.47949219 C282 295 282 295 281 292 C289.37434126 294.12876313 297.47272194 296.81825712 305.60546875 299.7265625 C306.91679552 300.19221238 308.22825122 300.65749932 309.53982544 301.12245178 C312.31844954 302.10831226 315.09618103 303.09663134 317.87319946 304.08700562 C322.22744987 305.63986723 326.58366748 307.18715628 330.94018555 308.73364258 C336.81994496 310.82140198 342.698891 312.9114335 348.57714844 315.00341797 C359.47032581 318.87995205 370.36732461 322.74568341 381.26577759 326.60736084 C384.23582246 327.6603159 387.20524234 328.71501732 390.17456055 329.77001953 C399.0887848 332.93389143 408.00513959 336.07114477 417 339 C417.25974609 338.31824707 417.51949219 337.63649414 417.78710938 336.93408203 C419.18049403 333.56337013 420.771946 330.31267558 422.40625 327.0546875 C422.73161743 326.40299591 423.05698486 325.75130432 423.39221191 325.0798645 C424.07706061 323.70948958 424.76291035 322.33961452 425.44970703 320.97021484 C426.49941873 318.87615957 427.54483222 316.77999781 428.58984375 314.68359375 C429.25755594 313.34882996 429.92551619 312.01419022 430.59375 310.6796875 C430.90526001 310.05464325 431.21677002 309.429599 431.53771973 308.78561401 C432.9044266 306.06686832 434.30869246 303.53696131 436 301 C435.68342107 295.71899737 434.10442429 291.17913263 432.078125 286.34765625 C431.63333801 285.25976807 431.63333801 285.25976807 431.17956543 284.14990234 C430.21045435 281.78431211 429.23034541 279.42345389 428.25 277.0625 C427.57376967 275.41820572 426.89832316 273.77358888 426.22363281 272.12866211 C424.83857622 268.75368009 423.44974334 265.38028716 422.05859375 262.0078125 C420.09159055 257.2321246 418.15065038 252.44622882 416.21875 247.65625 C415.92280945 246.92329208 415.6268689 246.19033417 415.32196045 245.43516541 C414.18926432 242.62971601 413.05662299 239.82424874 411.92687988 237.01760864 C411.15671309 235.10583773 410.38340716 233.19536481 409.609375 231.28515625 C409.17592773 230.21144775 408.74248047 229.13773926 408.29589844 228.03149414 C407.86825195 227.03110107 407.44060547 226.03070801 407 225 C406.65380615 223.94941406 406.3076123 222.89882813 405.95092773 221.81640625 C402.94798566 217.48128677 399.12829655 216.95153025 394.17578125 215.65234375 C392.65371819 215.22199074 392.65371819 215.22199074 391.10090637 214.78294373 C388.89366086 214.16123993 386.68345173 213.54998525 384.47076416 212.94793701 C380.9886422 211.99689795 377.51789584 211.01195226 374.04833984 210.01611328 C367.11155722 208.02851526 360.16500152 206.07693043 353.21637726 204.13130188 C350.45730065 203.3577864 347.69916532 202.58094282 344.94100952 201.80415154 C330.75256608 197.80923576 316.55371793 193.85912122 302.31945992 190.03036308 C300.29546927 189.48534953 298.2720163 188.9383881 296.24876404 188.39064026 C295.26519031 188.1243911 295.26519031 188.1243911 294.26174641 187.85276318 C292.95708989 187.4995415 291.65245743 187.14623094 290.34784985 186.79282856 C285.98763519 185.61339611 281.62175589 184.45653658 277.25463867 183.30297852 C274.97423707 182.68713607 272.69403377 182.07055872 270.4140625 181.453125 C269.40016953 181.191259 268.38627655 180.92939301 267.34165955 180.65959167 C256.68231442 177.7340263 248.2856571 171.65072468 239.375 165.3125 C237.61756955 164.07237507 235.85975227 162.83279816 234.1015625 161.59375 C233.23950195 160.9853125 232.37744141 160.376875 231.48925781 159.75 C227.92678376 157.24550667 224.34172847 154.77478511 220.75 152.3125 C220.10087646 151.86712891 219.45175293 151.42175781 218.78295898 150.96289062 C216.8557557 149.64126955 214.92793936 148.32054703 213 147 C202.80548944 140.01373839 192.64711132 132.97722361 182.50537109 125.91455078 C174.35905072 120.2438479 166.18706603 114.6116502 158 109 C148.87142309 102.74301119 139.76789829 96.45176489 130.6875 90.125 C121.21976915 83.52948462 111.71234021 76.99478116 102.18164062 70.49072266 C98.72050995 68.12571998 95.26618308 65.75086007 91.8125 63.375 C91.15483643 62.92278076 90.49717285 62.47056152 89.81958008 62.00463867 C86.68930583 59.8517758 83.56034162 57.69704381 80.43359375 55.5390625 C62.80623262 43.38201643 45.08111461 31.36388212 27.28067017 19.46170044 C25.62653375 18.35532906 23.97376139 17.24691912 22.32104492 16.13842773 C18.0320003 13.27739173 13.74693191 10.43139702 9.32763672 7.77490234 C8.72410873 7.41132126 8.12058075 7.04774017 7.49876404 6.67314148 C5.80430701 5.65901233 4.10336991 4.65573359 2.40209961 3.65307617 C1.60940674 3.10756104 0.81671387 2.5620459 0 2 C0 1.34 0 0.68 0 0 Z " fill="#000000" transform="translate(380,630)"/>
<path d="M0 0 C-3.03415978 3.35544526 -6.04198627 5.28075736 -10.06640625 7.3203125 C-10.65275345 7.62038712 -11.23910065 7.92046173 -11.84321594 8.22962952 C-13.74617222 9.20174684 -15.65428033 10.16326229 -17.5625 11.125 C-18.88797635 11.8003178 -20.21300615 12.47651273 -21.53759766 13.15356445 C-24.16355266 14.49545765 -26.79096277 15.83442899 -29.41943359 17.17138672 C-33.92678515 19.46826134 -38.4045767 21.81967645 -42.875 24.1875 C-51.62489578 28.80893057 -60.39647127 33.38815544 -69.171875 37.9609375 C-72.85130386 39.87836924 -76.52854609 41.79985364 -80.203125 43.7265625 C-94.30093417 51.11188013 -108.45869223 58.37775151 -122.63085938 65.61914062 C-132.34840772 70.58855541 -142.0259208 75.62820627 -151.67822266 80.72314453 C-156.25262747 83.13655848 -160.84383971 85.51668604 -165.43896484 87.89038086 C-174.3079061 92.47254159 -183.12865365 97.12532412 -191.875 101.9375 C-202.33694802 107.69205 -212.92593586 113.18666038 -223.5390625 118.65625 C-227.568852 120.73476049 -231.58593346 122.83348563 -235.5859375 124.96875 C-236.85884644 125.64719971 -236.85884644 125.64719971 -238.1574707 126.33935547 C-239.68697049 127.15697255 -241.21440089 127.97848165 -242.73901367 128.80517578 C-253.8351285 134.72814599 -265.55376201 138.01041232 -277.60546875 141.375 C-279.46154561 141.89754593 -281.3174841 142.42058353 -283.17329407 142.94407654 C-288.14656993 144.34552055 -293.12168683 145.74031824 -298.09719849 147.13380051 C-303.27160106 148.58416542 -308.4443222 150.04050158 -313.6171875 151.49633789 C-320.97358115 153.56612616 -328.33053521 155.63390096 -335.6882267 157.69907093 C-347.1030276 160.90304047 -358.51473314 164.11778477 -369.92366982 167.34257126 C-374.81961353 168.72634768 -379.71587071 170.10901464 -384.61208248 171.49184227 C-388.40798586 172.56395682 -392.20378879 173.63642376 -395.99935913 174.7097168 C-399.52623099 175.70688242 -403.05361415 176.70221963 -406.58138084 177.69621468 C-408.44288956 178.22117538 -410.30389331 178.7479257 -412.16487122 179.27476501 C-415.43973448 180.19657979 -418.71834735 181.10268294 -422 182 C-423.10851318 182.30809601 -424.21702637 182.61619202 -425.35913086 182.93362427 C-426.42591064 183.21857758 -427.49269043 183.50353088 -428.59179688 183.79711914 C-430.01051086 184.18136803 -430.01051086 184.18136803 -431.45788574 184.57337952 C-434.09598667 185.01610859 -435.54892884 185.0483852 -438 184 C-439.44473954 181.68708254 -440.59898603 179.52655434 -441.734375 177.06640625 C-442.07643982 176.35368057 -442.41850464 175.6409549 -442.77093506 174.90663147 C-443.86487692 172.61223728 -444.93517027 170.30803593 -446 168 C-446.34522705 167.2564325 -446.6904541 166.51286499 -447.04614258 165.74676514 C-449.83956556 159.71748979 -452.57248376 153.66129011 -455.30175781 147.6027832 C-456.32857381 145.32635601 -457.35947453 143.05181008 -458.390625 140.77734375 C-458.69486389 140.09808334 -458.99910278 139.41882294 -459.31256104 138.71897888 C-460.7836734 135.47605081 -462.33303579 132.39578683 -464.1809082 129.34985352 C-465.94739151 126.09687842 -466.54406356 124.25765771 -466.71484375 120.625 C-466.76882324 119.58988281 -466.82280273 118.55476562 -466.87841797 117.48828125 C-466.91854004 116.33714844 -466.95866211 115.18601562 -467 114 C-467.09692139 112.04126953 -467.09692139 112.04126953 -467.19580078 110.04296875 C-467.36411586 106.43806726 -467.45570867 102.83577158 -467.51489258 99.22753906 C-467.54664008 97.74208149 -467.59450851 96.25688135 -467.65844727 94.77246094 C-468.13651408 83.43366475 -466.40525085 77.04944888 -459 68 C-457.95677977 66.51968153 -456.92543749 65.03086836 -455.91015625 63.53125 C-454.96315363 62.18593727 -454.01393734 60.84218005 -453.0625 59.5 C-452.55017822 58.77643311 -452.03785645 58.05286621 -451.51000977 57.30737305 C-439.41149612 40.28186289 -426.33231939 24.06677839 -413 8 C-412.34 8.33 -411.68 8.66 -411 9 C-413.58640845 20.26948426 -416.38072132 31.46905209 -419.34259987 42.64545441 C-420.28027746 46.18831042 -421.20975525 49.73330297 -422.13981915 53.27816391 C-423.86073361 59.83715586 -425.58478608 66.39527542 -427.32299805 72.94970703 C-428.5429093 77.55100338 -429.75233696 82.15494302 -430.95480919 86.76082611 C-431.41224296 88.50494724 -431.87356015 90.24805478 -432.33887672 91.99008942 C-432.98562621 94.4131068 -433.61894427 96.83926767 -434.24926758 99.26660156 C-434.44294418 99.97932724 -434.63662079 100.69205292 -434.83616638 101.42637634 C-435.81922315 105.27559688 -436.26086861 108.18926225 -435 112 C-433.54318336 113.76797769 -433.54318336 113.76797769 -431.61328125 115.19140625 C-430.92169922 115.74376953 -430.23011719 116.29613281 -429.51757812 116.86523438 C-428.78990234 117.42533203 -428.06222656 117.98542969 -427.3125 118.5625 C-426.60416016 119.12646484 -425.89582031 119.69042969 -425.16601562 120.27148438 C-423.12989786 121.87894577 -421.09054336 123.46384167 -419 125 C-417.63935425 126.16233154 -417.63935425 126.16233154 -416.2512207 127.34814453 C-413.02362192 129.4084411 -413.02362192 129.4084411 -409.21826172 128.25512695 C-407.77716898 127.69507953 -406.34799997 127.10374136 -404.9296875 126.48828125 C-404.1480423 126.17373993 -403.36639709 125.85919861 -402.56106567 125.53512573 C-399.98651733 124.48889607 -397.43140532 123.40223528 -394.875 122.3125 C-393.08126538 121.5700736 -391.2869866 120.82896066 -389.4921875 120.08911133 C-370.53822621 112.20535578 -352.05526091 103.3179893 -333.59863281 94.34667969 C-317.16878698 86.39642273 -300.41025324 80.39632846 -283 75 C-282.04937683 74.70438171 -281.09875366 74.40876343 -280.11932373 74.10418701 C-224.97502437 56.96614694 -169.41740909 41.57885912 -113.50933838 27.16314697 C-108.81353034 25.95223605 -104.11842905 24.73859687 -99.42333984 23.52490234 C-90.40991781 21.19532502 -81.39508419 18.87125443 -72.37945175 16.55024719 C-70.05222708 15.95094932 -67.72515165 15.35107494 -65.39810181 14.75109863 C-55.2719294 12.14148734 -45.14074019 9.55245623 -35 7 C-33.85075043 6.71070492 -33.85075043 6.71070492 -32.67828369 6.41556549 C-28.00765928 5.24173282 -23.33465666 4.07808152 -18.65838623 2.92694283 C-17.1879582 2.56409293 -15.7180977 2.19893468 -14.24884033 1.83137321 C-12.22870085 1.3267906 -10.20656542 0.83122035 -8.18359375 0.33813477 C-7.03431396 0.05462662 -5.88503418 -0.22888153 -4.70092773 -0.52098083 C-2 -1 -2 -1 0 0 Z " fill="#000000" transform="translate(1596,786)"/>
<path d="M0 0 C-4.09856062 6.73735993 -8.97152191 12.76079636 -13.96630859 18.83837891 C-18.655645 24.54904932 -23.26753973 30.31914714 -27.6184082 36.29418945 C-29 38 -29 38 -31.01245117 39.88354492 C-38.48618268 47.49149992 -38.30636087 55.48657417 -38.60043335 65.58932495 C-38.75225576 70.77379668 -39.02719764 75.95252413 -39.28125 81.1328125 C-39.33165939 82.23288132 -39.38206879 83.33295013 -39.43400574 84.46635437 C-40.09760662 98.32401138 -41.4107713 112.12539555 -42.6875 125.9375 C-43.02716897 129.62007799 -43.36594559 133.30271864 -43.70068359 136.98574829 C-43.90153657 139.19203709 -44.10580101 141.39801921 -44.31420898 143.60360718 C-44.8165029 149.09783788 -45.10405055 154.48285308 -45 160 C-44.09983154 160.4626123 -43.19966309 160.92522461 -42.2722168 161.40185547 C-12.30639007 176.8050291 -12.30639007 176.8050291 -2.625 181.9375 C6.29261806 186.66245217 15.27255634 191.26514281 24.25 195.875 C43.56498518 205.79635019 62.82845398 215.79804397 81.95556641 226.07836914 C88.32118406 229.49944039 94.6952978 232.90320761 101.0859375 236.27734375 C114.89392205 243.57079621 128.61956178 250.95793007 142.18359375 258.69921875 C148.83612753 262.49029904 155.54178427 266.18378783 162.25 269.875 C164.72403137 271.23684653 167.19798447 272.59883515 169.671875 273.9609375 C170.28428543 274.29808273 170.89669586 274.63522797 171.52766418 274.98258972 C178.97269295 279.08329918 186.39871433 283.21816314 193.82617188 287.35058594 C199.65409848 290.59115809 205.48654627 293.82318278 211.328125 297.0390625 C211.94031891 297.37609695 212.55251282 297.71313141 213.18325806 298.06037903 C214.42085623 298.74168163 215.65845592 299.42298148 216.89605713 300.10427856 C227.09943214 305.72192933 237.27322252 311.3872489 247.40161133 317.1394043 C253.57702397 320.64288257 259.7773397 324.09837596 265.99145508 327.53271484 C276.67702986 333.43911615 287.28997143 339.44646471 297.81811523 345.62915039 C306.01142136 350.43801238 314.24818657 355.16753328 322.5 359.875 C323.12961639 360.23423553 323.75923279 360.59347107 324.40792847 360.96359253 C327.93776865 362.97722238 331.46848687 364.98930575 335 367 C334.67 367.66 334.34 368.32 334 369 C321.51013739 364.82588467 309.21375958 360.19455059 296.9375 355.4375 C280.15038238 348.93751801 263.3076721 342.5936267 246.4375 336.3125 C245.80864395 336.07833248 245.1797879 335.84416496 244.53187561 335.60290146 C226.25774668 328.79885097 207.97387729 322.02105455 189.6875 315.25 C187.52555262 314.4493022 185.36360601 313.64860231 183.20166016 312.84790039 C180.97559746 312.02356915 178.74952304 311.19926954 176.5234375 310.375 C175.39656525 309.95774155 174.26969299 309.54048309 173.1086731 309.11058044 C165.67946133 306.36035236 158.24879901 303.61407964 150.81742764 300.86969376 C144.494047 298.53418693 138.17191284 296.19532314 131.85048008 293.85454941 C127.98736848 292.42423411 124.12372212 290.99540775 120.25863647 289.57043457 C95.54251774 280.456158 71.76973852 270.61689697 48.25 258.6875 C44.00686756 256.5422744 39.76188046 254.40075561 35.515625 252.26171875 C34.47340286 251.73642578 33.43118073 251.21113281 32.3573761 250.66992188 C22.48547561 245.71049896 12.52229443 240.95149174 2.54327393 236.21243286 C-1.14114991 234.45598953 -4.81223469 232.67276932 -8.48046875 230.8828125 C-9.11966248 230.57117157 -9.7588562 230.25953064 -10.41741943 229.93844604 C-11.69040945 229.31774113 -12.96335887 228.69695296 -14.23626709 228.07608032 C-25.2348736 222.71508105 -36.26552401 217.44061465 -47.375 212.3125 C-51.91739258 210.2098978 -56.45882202 208.10522396 -61 206 C-61.61883057 205.71386841 -62.23766113 205.42773682 -62.87524414 205.13293457 C-66.69253166 203.36721501 -70.50340385 201.58875458 -74.30645752 199.79257202 C-76.08356262 198.95698371 -77.86667751 198.13421488 -79.64990234 197.31176758 C-80.7167627 196.80540771 -81.78362305 196.29904785 -82.8828125 195.77734375 C-83.82527832 195.33640381 -84.76774414 194.89546387 -85.73876953 194.44116211 C-88.38188837 192.75660904 -88.86652645 191.88247908 -90 189 C-90.33074474 186.91713742 -90.5681739 184.81878284 -90.74829102 182.7175293 C-90.86204575 181.41104935 -90.97580048 180.1045694 -91.09300232 178.75849915 C-91.20978567 177.30129086 -91.32589568 175.84402848 -91.44140625 174.38671875 C-91.50372499 173.63334417 -91.56604374 172.8799696 -91.63025093 172.10376549 C-92.7986692 157.96447636 -93.65205981 143.80802544 -94.46484375 129.64453125 C-94.52538563 128.59526333 -94.58592751 127.54599541 -94.64830399 126.46493149 C-95.21203296 116.68527845 -95.77201052 106.90545838 -96.29956055 97.1237793 C-96.59266588 91.70085729 -96.90286897 86.27914303 -97.22421455 80.85782433 C-97.34181547 78.81893284 -97.45307309 76.77966435 -97.55760002 74.74006081 C-97.70313488 71.91120945 -97.87047008 69.08441266 -98.04272461 66.25708008 C-98.0797348 65.43380722 -98.116745 64.61053436 -98.15487671 63.76231384 C-98.6352407 56.53947907 -101.33347964 50.85793465 -105.69140625 45.11328125 C-106.16126953 44.48486328 -106.63113281 43.85644531 -107.11523438 43.20898438 C-107.59283203 42.58314453 -108.07042969 41.95730469 -108.5625 41.3125 C-117 30.14156627 -117 30.14156627 -117 27 C-102.4850467 23.47269468 -87.96852033 19.95192304 -73.4501009 16.43891144 C-66.70889839 14.80758649 -59.96822528 13.17413206 -53.22875977 11.53564453 C-46.72667949 9.95487606 -40.22318197 8.38007002 -33.71877098 6.80891418 C-31.23555722 6.20805256 -28.75282832 5.60518354 -26.27059364 5.00028992 C-22.79794437 4.1544035 -19.32365084 3.31562483 -15.84887695 2.47851562 C-14.81957062 2.22604568 -13.79026428 1.97357574 -12.72976685 1.7134552 C-11.78050827 1.48627304 -10.83124969 1.25909088 -9.85322571 1.02502441 C-9.03190816 0.82591713 -8.21059061 0.62680984 -7.36438465 0.42166901 C-4.86340328 -0.02436093 -2.53513566 -0.07393498 0 0 Z " fill="#000000" transform="translate(1268,1003)"/>
<path d="M0 0 C56.4831061 -0.35871327 112.91199778 -0.06505354 169.375 1.4375 C170.64885559 1.47133915 171.92271118 1.5051783 173.23516846 1.54004288 C193.25050741 2.07418095 213.26507307 2.63787675 233.27810287 3.25276661 C236.54477903 3.35293044 239.81151269 3.45114037 243.07825089 3.54925728 C245.19897648 3.6140759 247.31955842 3.68256167 249.44015503 3.75144958 C255.8154224 3.94463873 262.14159915 4.0204926 268.51504517 3.74414062 C280.892279 3.43899675 289.44350076 9.97443119 299.15820312 16.97216797 C302.89967438 19.64198414 306.72945923 22.16484904 310.56835938 24.69165039 C313.54164451 26.6524636 316.49833808 28.63643986 319.453125 30.625 C323.60644155 33.41280726 327.77830836 36.16834122 331.97045898 38.89736938 C334.72530403 40.69194606 337.47426473 42.49543104 340.22290039 44.29949951 C341.56247963 45.1754372 342.90472985 46.04730515 344.24975586 46.91485596 C346.13727398 48.13307616 348.01463904 49.36568157 349.890625 50.6015625 C350.97375977 51.30619629 352.05689453 52.01083008 353.17285156 52.73681641 C357.58152798 56.26604183 360.13202898 60.2494009 361.484375 65.71484375 C361.80341797 66.99198242 361.80341797 66.99198242 362.12890625 68.29492188 C362.33386719 69.16697266 362.53882813 70.03902344 362.75 70.9375 C362.97042969 71.80568359 363.19085937 72.67386719 363.41796875 73.56835938 C364.67289094 78.72445271 365 82.48837122 365 88 C352.46 91.96 339.92 95.92 327 100 C332.94 101.485 332.94 101.485 339 103 C341.64790874 105.75382509 343.09514284 107.78908979 345 111 C345.85165542 112.25656888 346.71180173 113.50740463 347.578125 114.75390625 C348.51117084 116.1062508 349.44345686 117.45911989 350.375 118.8125 C351.0558667 119.80008301 351.0558667 119.80008301 351.75048828 120.80761719 C355 125.65633241 355 125.65633241 355 129 C263.59 129 172.18 129 78 129 C78.33 128.01 78.66 127.02 79 126 C81.19750977 125.20727539 81.19750977 125.20727539 84.19140625 124.59765625 C85.33730225 124.3538623 86.48319824 124.11006836 87.66381836 123.85888672 C88.9503833 123.5960791 90.23694824 123.33327148 91.5625 123.0625 C94.43192972 122.45159553 97.29825033 121.82685474 100.1640625 121.19921875 C101.32913582 120.94498138 101.32913582 120.94498138 102.51774597 120.68560791 C111.54111176 118.69516874 120.48840542 116.40980973 129.44342041 114.13497925 C156.37926949 107.29792441 183.42982269 100.9947036 210.51904297 94.79748535 C213.94297856 94.01306358 217.36614815 93.22538856 220.7890625 92.43652344 C253.76891214 84.83820265 286.83591785 77.74830426 320 71 C320 70.67 320 70.34 320 70 C226.22274444 48.64814197 132.28370437 28.13105206 0 2 C0 1.34 0 0.68 0 0 Z " fill="#000000" transform="translate(403,952)"/>
<path d="M0 0 C-7.98502079 6.35074364 -16.18514174 12.2485719 -24.6315918 17.96728516 C-30.96288838 22.26336542 -37.1816552 26.69558755 -43.36987305 31.19458008 C-48.38426416 34.83866718 -53.42838753 38.43602146 -58.5 42 C-64.36500542 46.1237257 -70.19433944 50.29314441 -76 54.5 C-81.8056656 58.70685924 -87.63521719 62.87595272 -93.5 67 C-101.62797303 72.71773198 -109.68666362 78.52824325 -117.73388672 84.35888672 C-121.486448 87.07648173 -125.24343419 89.78794473 -129 92.5 C-130.50002146 93.58330362 -132.00002146 94.66663696 -133.5 95.75 C-142.5 102.25 -142.5 102.25 -144.74975586 103.87475586 C-146.2506555 104.95878416 -147.75146922 106.04293142 -149.25219727 107.12719727 C-152.98773967 109.82587655 -156.72472254 112.52251312 -160.46484375 115.21484375 C-173.1712853 124.36587046 -185.87803892 133.52532675 -198.3046875 143.0546875 C-199.20276123 143.74328857 -200.10083496 144.43188965 -201.02612305 145.14135742 C-202.71814926 146.44223548 -204.40743763 147.74668833 -206.09301758 149.0559082 C-208.70659749 151.06799804 -211.35303994 153.03204565 -214 155 C-214.53926117 155.42229889 -215.07852234 155.84459778 -215.63412476 156.2796936 C-227.29061212 165.37896411 -239.43949706 169.86822836 -253.4375 174.3125 C-255.65363886 175.0378191 -257.86887846 175.76589105 -260.08325195 176.49658203 C-264.56693535 177.97353141 -269.05420929 179.43861137 -273.54492188 180.89404297 C-279.47816575 182.82227002 -285.39212887 184.80274659 -291.296875 186.81640625 C-292.1743187 187.1155191 -293.05176239 187.41463196 -293.95579529 187.72280884 C-298.23575396 189.1854426 -302.511495 190.65965604 -306.78344727 192.14550781 C-308.43489977 192.71855686 -310.08650852 193.29115587 -311.73828125 193.86328125 C-312.53379898 194.1390097 -313.32931671 194.41473816 -314.14894104 194.69882202 C-319.03870827 196.37658355 -323.94509397 197.88071524 -328.91796875 199.29296875 C-353.9740691 206.7183841 -373.92662846 221.97996422 -395 237 C-398.65479906 239.59762229 -402.31235468 242.1898725 -406.00219727 244.73754883 C-407.91476369 246.06134572 -409.81180531 247.40805991 -411.68725586 248.78393555 C-417.84251747 253.05673652 -422.56897718 253.78672069 -430 253 C-428.38717495 248.8237532 -426.38630062 245.06705863 -424.0625 241.25 C-423.46924927 240.26882202 -423.46924927 240.26882202 -422.86401367 239.26782227 C-419.03239422 232.97424379 -415.02520465 226.79832944 -411.00390625 220.625 C-407.72153992 215.58224019 -404.48128539 210.51310783 -401.25 205.4375 C-400.66895508 204.52508545 -400.08791016 203.6126709 -399.48925781 202.67260742 C-396.30891884 197.66743402 -393.15200178 192.64856181 -390.01953125 187.61328125 C-389.35856445 186.55117432 -388.69759766 185.48906738 -388.01660156 184.39477539 C-386.75414534 182.36307892 -385.49419995 180.32981914 -384.23730469 178.29467773 C-376.00548038 165.03925395 -370.00156329 157.70199192 -355.75 151.0625 C-348.33861644 147.57050706 -340.97709973 144.00459818 -333.67138672 140.29638672 C-312.856288 129.73660993 -291.55274017 120.29524441 -270.07958984 111.16064453 C-258.60297243 106.27661035 -247.16704196 101.30022626 -235.72949219 96.32550049 C-203.27754679 82.21430075 -170.72182979 68.36914034 -138.06835938 54.73144531 C-126.81143016 50.02779035 -115.5746237 45.27918347 -104.35223389 40.4937439 C-74.28605668 27.67411619 -44.12483499 15.08436429 -13.71386719 3.10253906 C-11.41945817 2.1704096 -9.18675516 1.16745672 -6.9453125 0.1171875 C-3.99302016 -1.00264752 -2.85212157 -1.25493349 0 0 Z " fill="#000000" transform="translate(1622,633)"/>
<path d="M0 0 C11.41142025 5.67943447 22.78415377 11.43093274 34.125 17.25 C34.93658569 17.66618591 35.74817139 18.08237183 36.58435059 18.51116943 C46.70025507 23.70308088 56.75855744 28.97194877 66.70385742 34.48535156 C76.61144046 39.94831325 86.69820186 45.06853116 96.77246094 50.21533203 C97.46277908 50.56862579 98.15309723 50.92191956 98.86433411 51.28591919 C100.15446441 51.94590008 101.44532961 52.60444741 102.73710632 53.26119995 C106.8999795 55.39050669 110.94712838 57.67161873 115 60 C115.21035921 73.54861962 114.54884031 86.98719756 113.72265625 100.5078125 C113.5901737 102.73116977 113.45805465 104.95454873 113.32627869 107.177948 C113.05114785 111.80209519 112.77263751 116.42602161 112.49145508 121.04980469 C112.13181083 126.96608044 111.77926915 132.88275322 111.42903996 138.79959297 C111.15765017 143.37567813 110.88329643 147.95158168 110.60796928 152.52743149 C110.47686721 154.70981316 110.34650376 156.89223935 110.21690559 159.07471085 C110.03560209 162.11786178 109.85048914 165.16075745 109.66430664 168.20361328 C109.58554291 169.54243813 109.58554291 169.54243813 109.50518799 170.90830994 C108.61994127 185.15984527 108.61994127 185.15984527 104.46484375 189.15625 C103.73716797 189.86910156 103.00949219 190.58195312 102.25976562 191.31640625 C101.49341797 192.03699219 100.72707031 192.75757813 99.9375 193.5 C99.19822266 194.22058594 98.45894531 194.94117188 97.69726562 195.68359375 C93.50731767 199.7379091 89.18695678 203.61273371 84.77954102 207.42773438 C82.41323534 209.51842014 80.20225561 211.73822397 78 214 C74.47893677 217.56400302 70.86813992 220.90304168 67.0625 224.15625 C63.71511346 227.1486107 60.61141114 230.38107536 57.45703125 233.57421875 C54.65690841 236.33872795 51.74297478 238.91810169 48.7421875 241.4609375 C46.76421946 243.15347046 46.76421946 243.15347046 44.3125 245.9375 C42 248 42 248 39.76464844 248.42041016 C35.87541339 247.82898815 33.45107817 245.71696304 30.453125 243.3359375 C24.58257209 238.85804868 18.5998145 234.64506942 12.421875 230.6015625 C11.15036339 229.76773796 11.15036339 229.76773796 9.85316467 228.91706848 C7.15388552 227.15031332 4.45197253 225.3876327 1.75 223.625 C-10.22083299 215.79498971 -22.16162933 207.92925503 -33.98046875 199.87109375 C-34.94822235 199.21246338 -35.91597595 198.55383301 -36.91305542 197.87524414 C-41.55026801 194.71791807 -46.18024713 191.55077406 -50.79980469 188.36767578 C-66.48195233 177.62235224 -80.56255983 171.97432869 -99.125 168.1875 C-101.93195656 167.59918541 -104.73798378 167.00659044 -107.54391479 166.41340637 C-109.27595411 166.04893072 -111.00877848 165.68816073 -112.74246216 165.33158875 C-115.8925585 164.68129241 -118.94537173 164.01820942 -122 163 C-121 160 -121 160 -119.18554688 158.91943359 C-118.37150391 158.58250488 -117.55746094 158.24557617 -116.71875 157.8984375 C-115.75815674 157.49995605 -114.79756348 157.10147461 -113.80786133 156.69091797 C-112.71626709 156.25666504 -111.62467285 155.82241211 -110.5 155.375 C-109.32783936 154.90336426 -108.15567871 154.43172852 -106.94799805 153.94580078 C-89.80448933 147.14242243 -72.26491455 141.36723146 -54.82322693 135.38659668 C-42.9160448 131.29682391 -31.05041901 127.09111425 -19.1875 122.875 C-17.2373907 122.18211586 -15.2872769 121.48924441 -13.3371582 120.79638672 C-12.40230087 120.46414093 -11.46744354 120.13189514 -10.5042572 119.7895813 C-7.78781297 118.82504881 -5.07044612 117.86314998 -2.35302734 116.90136719 C1.35501562 115.58808953 5.05647532 114.25775714 8.75537109 112.91894531 C10.59078009 112.2609555 12.42622781 111.6030737 14.26171875 110.9453125 C15.11353226 110.6333493 15.96534576 110.32138611 16.8429718 109.99996948 C18.87571165 109.27573866 20.93607341 108.62987982 23 108 C23.66 108.33 24.32 108.66 25 109 C17.86117275 120.66923686 10.34985125 132.07058077 2.734375 143.43359375 C2.10853516 144.37315918 1.48269531 145.31272461 0.83789062 146.28076172 C-0.36797539 148.06489239 -1.59789277 149.83304922 -2.85351562 151.58251953 C-3.41232422 152.37126465 -3.97113281 153.16000977 -4.546875 153.97265625 C-5.04541992 154.657229 -5.54396484 155.34180176 -6.05761719 156.04711914 C-7.18481663 157.95353482 -7.18481663 157.95353482 -6.8059082 160.07861328 C-5.46191356 163.28286588 -2.90295517 165.44542454 -0.4375 167.8125 C0.10970703 168.34875 0.65691406 168.885 1.22070312 169.4375 C4.65757739 172.78126696 8.18793977 175.97726031 11.859375 179.0625 C13.6642752 180.6961323 15.33707118 182.36532648 17.015625 184.125 C17.54929687 184.67994141 18.08296875 185.23488281 18.6328125 185.80664062 C19.6959662 186.91987041 20.74847212 188.04338522 21.7890625 189.17773438 C23.40310545 190.9194161 23.40310545 190.9194161 26 193 C30.52744352 192.50276307 33.69970259 189.44831543 37.1875 186.75 C37.87859863 186.22438477 38.56969727 185.69876953 39.28173828 185.15722656 C43.124429 182.22970865 46.94269286 179.27077921 50.76171875 176.3125 C51.53298096 175.71727539 52.30424316 175.12205078 53.09887695 174.50878906 C54.59988337 173.34894242 56.09721612 172.18432372 57.59057617 171.01464844 C58.26967041 170.4890332 58.94876465 169.96341797 59.6484375 169.421875 C60.24833496 168.95362305 60.84823242 168.48537109 61.46630859 168.00292969 C63 167 63 167 65 167 C65.26229535 155.97700618 65.52318071 144.95397996 65.78230286 133.93091106 C65.9026876 128.81159025 66.02354446 123.69228152 66.14550781 118.57299805 C66.26335369 113.62579244 66.37992344 108.67855821 66.49563599 103.73130226 C66.53983816 101.85081742 66.58448778 99.97034303 66.62960815 98.08987999 C66.73170931 93.82934935 66.82849386 89.56898365 66.90722656 85.30795288 C66.95643473 82.68234108 67.04265757 80.07044974 67.16308594 77.44619751 C67.21577637 75.97586563 67.21577637 75.97586563 67.26953125 74.47583008 C67.31053955 73.67494461 67.35154785 72.87405914 67.39379883 72.04890442 C66.83773696 69.15575813 65.43583778 68.23594175 63.125 66.5 C61.10156608 65.30198955 59.05647333 64.14036456 57 63 C54.84667604 61.69840282 52.70721513 60.37543986 50.56665039 59.05297852 C48.24005294 57.61886866 45.90434268 56.20069132 43.56640625 54.78515625 C39.40891498 52.25880868 35.28488065 49.68513385 31.1875 47.0625 C30.10855469 46.37285156 29.02960938 45.68320313 27.91796875 44.97265625 C26.95503906 44.32167969 25.99210938 43.67070313 25 43 C24.17113281 42.46246094 23.34226562 41.92492188 22.48828125 41.37109375 C18.72861699 37.78849374 16.50456837 33.51740999 14 29 C13.40993164 27.94441895 12.81986328 26.88883789 12.21191406 25.80126953 C10.32835922 22.39950028 8.4734389 18.98346259 6.625 15.5625 C5.97791523 14.38083164 5.33078007 13.19919087 4.68359375 12.01757812 C4.07902344 10.89931641 3.47445312 9.78105469 2.8515625 8.62890625 C2.30322754 7.61900635 1.75489258 6.60910645 1.18994141 5.56860352 C0 3 0 3 0 0 Z " fill="#000000" transform="translate(779,1011)"/>
<path d="M0 0 C0 0.66 0 1.32 0 2 C-7.45768599 3.60718381 -14.91620349 5.21047841 -22.375 6.8125 C-23.58543976 7.07264893 -24.79587952 7.33279785 -26.04299927 7.60083008 C-42.00070177 11.02850439 -57.96549979 14.42020301 -73.94141769 17.76201057 C-117.5055554 26.87539427 -160.99913772 36.24262111 -204.40991211 46.0625 C-205.27752072 46.25873333 -206.14512934 46.45496666 -207.03902912 46.65714645 C-211.30108449 47.62187843 -215.56231245 48.59004938 -219.82209778 49.5647583 C-227.6779903 51.35976981 -235.53737552 53.12684806 -243.41928291 54.80453682 C-247.12819091 55.59485325 -250.8343908 56.39748804 -254.54053879 57.200634 C-256.30009902 57.57806163 -258.06101867 57.94921445 -259.8233223 58.31361771 C-262.25877174 58.81750848 -264.68872637 59.34276727 -267.11865234 59.87255859 C-267.83113506 60.01382046 -268.54361778 60.15508232 -269.27769089 60.30062485 C-277.03879361 62.04123885 -281.05141782 66.69571194 -285.6875 72.9375 C-286.55783351 74.09562379 -287.4289548 75.25315591 -288.30078125 76.41015625 C-288.74502441 77.00328613 -289.18926758 77.59641602 -289.64697266 78.20751953 C-291.85084713 81.12719589 -294.11120811 84.00167879 -296.375 86.875 C-297.05695435 87.74209595 -297.05695435 87.74209595 -297.75268555 88.62670898 C-301.64704922 93.57010538 -305.58026638 98.48205121 -309.5168457 103.3918457 C-312.88696524 107.59863949 -316.23462744 111.82221341 -319.5625 116.0625 C-320.00875732 116.63105713 -320.45501465 117.19961426 -320.91479492 117.78540039 C-323.25409527 120.76818803 -325.58915029 123.75425526 -327.921875 126.7421875 C-332.49961526 132.5981678 -337.08468942 138.42045826 -342 144 C-344.58374946 140.12437581 -344.45342369 136.70651666 -344.6328125 132.1953125 C-344.67437469 131.32035126 -344.71593689 130.44539001 -344.75875854 129.54391479 C-344.84528489 127.68637386 -344.92736934 125.82862154 -345.00537109 123.97070312 C-345.1231057 121.17006103 -345.25359995 118.3702611 -345.38671875 115.5703125 C-345.59175514 111.16238671 -345.76230425 106.75416124 -345.91275024 102.34405518 C-345.99179406 100.22046115 -346.09750436 98.10006446 -346.2097168 95.97802734 C-346.49729558 87.8741605 -346.49729558 87.8741605 -344.12890625 83.7109375 C-343.28199219 82.94007812 -342.43507813 82.16921875 -341.5625 81.375 C-340.64726563 80.48683594 -339.73203125 79.59867188 -338.7890625 78.68359375 C-337.40847656 77.35521484 -337.40847656 77.35521484 -336 76 C-334.45039113 74.16981411 -332.92850092 72.31573968 -331.4375 70.4375 C-327.77138653 65.89541251 -323.93857798 61.54729743 -320.015625 57.2265625 C-315.17229164 52.13773178 -315.17229164 52.13773178 -312 46 C-313.01779541 45.63201294 -313.01779541 45.63201294 -314.05615234 45.2565918 C-317.58473728 43.75040282 -320.81807659 41.86221892 -324.1015625 39.89453125 C-324.77867279 39.49223801 -325.45578308 39.08994476 -326.15341187 38.67546082 C-327.58489239 37.82399143 -329.01534345 36.97078921 -330.44482422 36.1159668 C-332.59496653 34.83045618 -334.74833537 33.55050403 -336.90234375 32.27148438 C-340.94610177 29.86603778 -344.97675124 27.43957388 -349 25 C-349.58954468 24.64387634 -350.17908936 24.28775269 -350.78649902 23.9208374 C-352.37067771 22.95964841 -353.94734422 21.986109 -355.5234375 21.01171875 C-356.83320557 20.20480591 -356.83320557 20.20480591 -358.16943359 19.3815918 C-358.77352051 18.9256665 -359.37760742 18.46974121 -360 18 C-360 17.34 -360 16.68 -360 16 C-321.96935185 11.43232287 -283.82687568 8.51723386 -245.58209229 6.52410889 C-241.81494846 6.32576979 -238.04827618 6.11918508 -234.28157997 5.91254616 C-189.02556238 3.43334334 -143.78481422 1.7379254 -98.46783447 0.93554688 C-93.99822898 0.85459143 -89.52877345 0.76656386 -85.05929947 0.67869186 C-56.70334252 0.12475517 -28.36118118 -0.12621737 0 0 Z " fill="#000000" transform="translate(1610,952)"/>
<path d="M0 0 C12.39297214 2.58827531 24.76909119 5.24224264 37.12890625 7.984375 C37.95665243 8.16775862 38.78439861 8.35114223 39.63722801 8.54008293 C61.10555388 13.29744632 82.5589356 18.12128294 104 23 C104.8292675 23.18863365 105.658535 23.3772673 106.51293182 23.57161713 C141.60141066 31.55990038 176.17529657 40.23658296 210.22766113 52.00970459 C217.47176477 54.5068267 224.75534564 56.85857409 232.0625 59.1640625 C234.21132285 59.84608432 236.36008672 60.528292 238.50878906 61.21069336 C241.59513654 62.1904715 244.68235272 63.16645289 247.77429199 64.12844849 C250.57815981 65.00260411 253.37535843 65.89562166 256.171875 66.79296875 C256.99647217 67.04442657 257.82106934 67.2958844 258.6706543 67.55496216 C266.124764 69.98222185 269.72507832 74.07230397 273.63671875 80.83203125 C274.2908374 81.95150146 274.94495605 83.07097168 275.61889648 84.22436523 C275.95637909 84.80983124 276.29386169 85.39529724 276.64157104 85.99850464 C278.41739294 89.07838178 280.21858644 92.14340932 282.015625 95.2109375 C282.36701035 95.81242111 282.71839569 96.41390472 283.08042908 97.03361511 C285.6252682 101.38392232 288.23728095 105.68232107 290.9375 109.9375 C295.67500921 117.42336858 300.27723629 124.99037632 304.875 132.5625 C305.24825409 133.17640594 305.62150818 133.79031189 306.006073 134.42282104 C308.34800138 138.27554601 310.67600216 142.1364219 313 146 C313.46704346 146.75812988 313.93408691 147.51625977 314.4152832 148.29736328 C317.06339747 152.69005683 317.06339747 152.69005683 316.4375 155.75 C313.88709677 159.74193548 313.88709677 159.74193548 312 161 C307.99041006 160.5500147 304.988336 159.11170221 301.4765625 157.18359375 C300.38851318 156.59215576 299.30046387 156.00071777 298.17944336 155.39135742 C297.60161102 155.07363373 297.02377869 154.75591003 296.42843628 154.42855835 C293.30792175 152.71371429 290.17509891 151.02163271 287.04296875 149.328125 C286.38835159 148.97364792 285.73373444 148.61917084 285.0592804 148.25395203 C277.73670224 144.29891474 270.34068347 140.48886142 262.9375 136.6875 C260.32144686 135.34277401 257.70561581 133.9976164 255.08984375 132.65234375 C254.46954285 132.33343674 253.84924194 132.01452972 253.21014404 131.68595886 C247.38250486 128.6874676 241.58069529 125.64162103 235.78588867 122.58032227 C228.79971257 118.88984751 221.7966287 115.23222292 214.78881836 111.58300781 C210.1308374 109.15715987 205.47575192 106.72648895 200.83203125 104.2734375 C186.57088223 96.75771568 172.16457981 89.54610505 157.72485352 82.38085938 C156.48376579 81.76351425 156.48376579 81.76351425 155.21760559 81.13369751 C153.70062657 80.37919061 152.1828374 79.62630797 150.66386414 78.87582397 C145.08097356 76.09690523 139.56787586 73.19345673 134.05566406 70.27783203 C125.34802616 65.67778549 116.57350219 61.22606012 107.75619507 56.84051514 C105.21966153 55.57882134 102.68452048 54.31436429 100.1496582 53.04931641 C94.76758705 50.36390449 89.38392791 47.68168698 84 45 C77.74475237 41.88431636 71.49022503 38.76720303 65.23739624 35.64666748 C62.77995681 34.42110945 60.32129681 33.19802771 57.86254883 31.97509766 C48.99148156 27.55373486 40.18023454 23.03423388 31.42578125 18.38573456 C23.9393196 14.41355519 16.33804587 10.6954526 8.69140625 7.04101562 C7.20060547 6.31108398 7.20060547 6.31108398 5.6796875 5.56640625 C4.80038574 5.14302979 3.92108398 4.71965332 3.01513672 4.28344727 C1 3 1 3 0 0 Z " fill="#000000" transform="translate(456,785)"/>
<path d="M0 0 C2.87183253 1.49526096 5.37320586 3.34445588 7.9375 5.3125 C9.444515 6.42295811 10.95234666 7.53230866 12.4609375 8.640625 C13.21858398 9.20458984 13.97623047 9.76855469 14.75683594 10.34960938 C18.1364661 12.83614615 21.59501954 15.2008298 25.0625 17.5625 C26.36854254 18.45955831 27.67453193 19.35669403 28.98046875 20.25390625 C31.80826204 22.19062641 34.6460359 24.11190423 37.48828125 26.02734375 C38.22232178 26.52484131 38.9563623 27.02233887 39.71264648 27.53491211 C41.12174884 28.48963981 42.53388827 29.43990504 43.94946289 30.38500977 C46.94677433 32.42073943 48.96709231 33.95063847 51 37 C43.23665191 40.30924973 35.43051611 43.3769071 27.4765625 46.1953125 C26.3975769 46.58043503 25.31859131 46.96555756 24.20690918 47.36235046 C20.6807565 48.61982351 17.15293108 49.87252596 13.625 51.125 C11.7635667 51.78778284 9.9021343 52.45056826 8.04080009 53.11362934 C-11.85017906 60.19857516 -31.7672969 67.20906662 -51.68945312 74.20581055 C-69.38052616 80.42036739 -87.04561057 86.70501673 -104.69805908 93.02833557 C-111.72904329 95.54651274 -118.76260402 98.05742649 -125.796875 100.56640625 C-203.87822775 127.76355588 -203.87822775 127.76355588 -281.12646484 157.17578125 C-283.93529421 158.30019144 -285.93837764 159 -289 159 C-289 158.34 -289 157.68 -289 157 C-288.14341797 156.51926025 -288.14341797 156.51926025 -287.26953125 156.02880859 C-276.12958318 149.77033618 -265.02420364 143.46049357 -254 137 C-242.40258523 130.2084758 -230.72041876 123.576533 -219 117 C-217.5137915 116.1651709 -217.5137915 116.1651709 -215.99755859 115.31347656 C-200.82341364 106.79184398 -185.61568933 98.33107474 -170.3984375 89.88671875 C-167.03560196 88.01976523 -163.6738599 86.15085885 -160.3125 84.28125 C-145.72566018 76.16891979 -131.12059029 68.09034393 -116.50239563 60.03471375 C-112.21139746 57.66946634 -107.92349742 55.2986658 -103.63671875 52.92578125 C-92.00122253 46.48791028 -80.34763877 40.09107772 -68.625 33.8125 C-60.52467803 29.47384861 -52.48535518 25.04669869 -44.5 20.5 C-40.66948419 18.32832135 -36.83569853 16.16251063 -33 14 C-31.31003906 13.04552979 -31.31003906 13.04552979 -29.5859375 12.07177734 C-26.06829684 10.09017634 -22.53481851 8.13829159 -19 6.1875 C-17.90751953 5.57003906 -16.81503906 4.95257812 -15.68945312 4.31640625 C-5.55337772 -1.22962876 -5.55337772 -1.22962876 0 0 Z " fill="#000000" transform="translate(710,1211)"/>
<path d="M0 0 C-0.62848758 5.75739515 -3.83578057 10.17839936 -6.76171875 15.02929688 C-7.16003906 15.70927734 -7.55835938 16.38925781 -7.96875 17.08984375 C-8.51692383 18.00044556 -8.51692383 18.00044556 -9.07617188 18.92944336 C-11.03600206 23.32196973 -11.15407852 28.24781706 -11.43310547 32.99731445 C-11.50353058 34.1671991 -11.57395569 35.33708374 -11.64651489 36.54241943 C-11.75574783 38.43374603 -11.75574783 38.43374603 -11.8671875 40.36328125 C-11.94699622 41.70178223 -12.02715326 43.04026249 -12.1076355 44.37872314 C-12.27800851 47.21879313 -12.44674522 50.05895312 -12.61413574 52.89920044 C-13.04909009 60.27187085 -13.49604689 67.64381448 -13.9453125 75.015625 C-13.98979523 75.74645861 -14.03427795 76.47729221 -14.08010864 77.23027229 C-14.88034798 90.34768536 -15.76986631 103.45720326 -16.75 116.5625 C-16.81475525 117.42847809 -16.8795105 118.29445618 -16.94622803 119.18667603 C-17.29187026 123.79155651 -17.64290239 128.39599149 -18 133 C-11.40696979 128.85999515 -4.90389475 124.64140697 1.4375 120.125 C2.15687744 119.61614258 2.87625488 119.10728516 3.61743164 118.58300781 C9.09740718 114.68954949 14.46626607 110.66716084 19.77734375 106.546875 C22 105 22 105 24 105 C23.98445572 105.69633545 23.96891144 106.3926709 23.95289612 107.11010742 C23.8121335 113.70020163 23.70581117 120.28987124 23.6373148 126.88113403 C23.6009135 130.2692319 23.55161598 133.65607898 23.47192383 137.04345703 C23.386713 140.94596986 23.34723957 144.84672451 23.31640625 148.75 C23.28027725 149.95551514 23.24414825 151.16103027 23.20692444 152.40307617 C23.20421186 158.254799 23.40685064 162.07372472 27.32397461 166.60546875 C28.52435203 167.76342919 29.74957091 168.89627656 31 170 C32.17234459 171.18189489 33.33982123 172.36866057 34.5 173.5625 C35.66478076 174.71025037 36.83147328 175.85606362 38 177 C42.21237733 181.16400343 46.27261592 185.35309518 50.09765625 189.87890625 C53.32294261 193.47506743 56.80178734 196.82089522 60.23583984 200.21630859 C63.74250116 203.69865327 67.06085095 207.2647278 70.25390625 211.0390625 C72.43949169 213.49356785 74.77552072 215.76477136 77.125 218.0625 C80.93067144 221.81595949 84.08362358 225.52822282 87 230 C83.13648082 229.41010026 80.30814437 228.26536953 76.921875 226.33203125 C75.93888428 225.77580078 74.95589355 225.21957031 73.94311523 224.64648438 C72.88938721 224.04126953 71.83565918 223.43605469 70.75 222.8125 C68.48582463 221.52708383 66.2214975 220.24193493 63.95703125 218.95703125 C62.78855779 218.29120722 61.62010077 217.62535434 60.45166016 216.95947266 C56.15829342 214.52217166 51.84521425 212.12138619 47.53076172 209.72167969 C37.3320697 204.04518591 27.22314229 198.23313346 17.15991211 192.3203125 C9.66753062 187.93393253 2.10110271 183.69472074 -5.5 179.5 C-20.02745067 171.48060491 -34.36614274 163.15348905 -48.62109375 154.66015625 C-49.84783813 153.92937866 -49.84783813 153.92937866 -51.09936523 153.18383789 C-53 152 -53 152 -54 151 C-54.12307017 149.46588978 -54.17786969 147.92624511 -54.20532227 146.38745117 C-54.22528763 145.39233521 -54.24525299 144.39721924 -54.26582336 143.37194824 C-54.28251572 142.27338501 -54.29920807 141.17482178 -54.31640625 140.04296875 C-54.33700607 138.89679077 -54.3576059 137.75061279 -54.37882996 136.56970215 C-54.42221475 134.07998763 -54.4630209 131.59022717 -54.50158691 129.10043335 C-54.56260861 125.18052309 -54.63210344 121.26082274 -54.70214844 117.34106445 C-54.92343068 104.14026162 -55.02714717 90.95293539 -54.88671875 77.75 C-54.87633072 76.55280838 -54.86594269 75.35561676 -54.85523987 74.12214661 C-54.80497412 68.41061815 -54.73021284 62.70148719 -54.61157227 56.9909668 C-54.58894163 54.93539556 -54.56731854 52.8798129 -54.546875 50.82421875 C-54.5033918 49.43281677 -54.5033918 49.43281677 -54.45903015 48.01330566 C-54.44034376 43.52244051 -54.48098569 41.6535676 -57.35620117 38.03295898 C-58.22865479 37.36208252 -59.1011084 36.69120605 -60 36 C-60.90878906 35.22398438 -61.81757812 34.44796875 -62.75390625 33.6484375 C-63.68074219 32.89820313 -64.60757812 32.14796875 -65.5625 31.375 C-66.95662109 30.24191406 -66.95662109 30.24191406 -68.37890625 29.0859375 C-70.55959875 27.35048326 -72.75869743 25.65592707 -75 24 C-74.505 22.515 -74.505 22.515 -74 21 C-71.24919128 19.84199524 -71.24919128 19.84199524 -67.52416992 18.73168945 C-66.84769913 18.52642639 -66.17122833 18.32116333 -65.47425842 18.10968018 C-63.22976964 17.43208578 -60.98042139 16.77248476 -58.73046875 16.11328125 C-57.17178724 15.64766654 -55.61338483 15.18111661 -54.05525208 14.71366882 C-50.78473763 13.7353066 -47.51191116 12.76525995 -44.23706055 11.80151367 C-40.0400978 10.56616284 -35.84797491 9.31528358 -31.65731335 8.05874348 C-28.43733758 7.09424343 -25.21563788 6.13561921 -21.99331093 5.17900658 C-20.44718747 4.71974229 -18.90143731 4.25921938 -17.35606956 3.79741859 C-15.19366028 3.15271346 -13.02922206 2.51535838 -10.86401367 1.88012695 C-9.63236984 1.51611282 -8.40072601 1.15209869 -7.13175964 0.77705383 C-4 0 -4 0 0 0 Z " fill="#000000" transform="translate(1136,1035)"/>
<path d="M0 0 C-0.45180741 10.7654801 -1.36392701 21.46715461 -2.4375 32.1875 C-2.55971924 33.45231201 -2.68193848 34.71712402 -2.80786133 36.02026367 C-2.93185303 37.22400635 -3.05584473 38.42774902 -3.18359375 39.66796875 C-3.29243896 40.74328857 -3.40128418 41.8186084 -3.51342773 42.92651367 C-4.01852857 46.11703771 -4.89569602 48.96948533 -6 52 C-10.85924283 48.39199077 -14.16442868 44.14186542 -17.81640625 39.36328125 C-20.08697885 36.90586368 -20.77629788 36.32316675 -24 36 C-25.78514981 36.8588018 -25.78514981 36.8588018 -27.3828125 38.30859375 C-28.29740234 39.05786133 -28.29740234 39.05786133 -29.23046875 39.82226562 C-29.85566406 40.35529297 -30.48085938 40.88832031 -31.125 41.4375 C-37.77831912 47 -37.77831912 47 -40 47 C-40.19335938 47.97839844 -40.38671875 48.95679688 -40.5859375 49.96484375 C-40.84890503 51.28907309 -41.11192892 52.61329123 -41.375 53.9375 C-41.75785156 55.86916016 -41.75785156 55.86916016 -42.1484375 57.83984375 C-43.03525587 62.24081346 -44.01163587 66.62087448 -45 71 C-44.23856689 70.72212646 -43.47713379 70.44425293 -42.69262695 70.15795898 C-39.23707066 68.90500718 -35.77500959 67.67109923 -32.3125 66.4375 C-30.51522461 65.78104492 -30.51522461 65.78104492 -28.68164062 65.11132812 C-27.52470703 64.70205078 -26.36777344 64.29277344 -25.17578125 63.87109375 C-24.11270752 63.48880615 -23.04963379 63.10651855 -21.9543457 62.71264648 C-18.80760925 61.95359155 -17.05045504 61.97850048 -14 63 C-12.1875 65.0625 -12.1875 65.0625 -11 67 C-16.40294364 72.04191745 -21.92806141 76.82838967 -27.75 81.375 C-28.33313965 81.83052246 -28.9162793 82.28604492 -29.51708984 82.75537109 C-32.64435058 85.18862999 -35.78675806 87.60115418 -38.9375 90.00390625 C-39.5759082 90.4952002 -40.21431641 90.98649414 -40.87207031 91.49267578 C-42.09547457 92.43392726 -43.32378525 93.36884639 -44.55761719 94.29638672 C-48.40421653 97.26366734 -50.5454342 99.46502546 -51.41064453 104.29003906 C-51.48395996 105.10698242 -51.55727539 105.92392578 -51.6328125 106.765625 C-51.75849609 108.09980469 -51.75849609 108.09980469 -51.88671875 109.4609375 C-51.96535156 110.38132812 -52.04398438 111.30171875 -52.125 112.25 C-52.25455078 113.65378906 -52.25455078 113.65378906 -52.38671875 115.0859375 C-52.59832308 117.39007353 -52.80248677 119.69462044 -53 122 C-43.73630051 116.62146937 -34.54163511 111.14503099 -25.4375 105.5 C-24.55835938 104.9548877 -23.67921875 104.40977539 -22.7734375 103.84814453 C-18.5645007 101.23234635 -14.36509252 98.60251292 -10.1796875 95.94921875 C-9.06895874 95.24732422 -9.06895874 95.24732422 -7.93579102 94.53125 C-6.55347384 93.65643411 -5.17361293 92.77772092 -3.79663086 91.89453125 C0.77767555 89 0.77767555 89 3 89 C2.4700577 98.67052043 1.40091739 108.07839076 -0.25 117.625 C-0.44207031 118.86378906 -0.63414062 120.10257813 -0.83203125 121.37890625 C-1.13947266 123.15974609 -1.13947266 123.15974609 -1.453125 124.9765625 C-1.63004883 126.03955566 -1.80697266 127.10254883 -1.98925781 128.19775391 C-3.86363646 133.39440081 -8.47197145 135.42071733 -13.18359375 137.8125 C-14.18197266 138.32425781 -15.18035156 138.83601563 -16.20898438 139.36328125 C-17.27439453 139.90339844 -18.33980469 140.44351562 -19.4375 141 C-27.68447978 145.23093462 -35.88242029 149.52566115 -44 154 C-52.83136694 158.85897685 -61.74987244 163.53034158 -70.70556641 168.15551758 C-77.31361398 171.57734274 -83.86147348 175.08949898 -90.375 178.6875 C-101.86307093 185.02766084 -113.5464491 190.98439281 -125.23388672 196.94604492 C-126.3442907 197.51344894 -126.3442907 197.51344894 -127.47712708 198.09231567 C-128.87024292 198.8038945 -130.26414526 199.51393652 -131.65898132 200.22213745 C-134.44593692 201.64562286 -137.16661365 203.10211989 -139.83569336 204.73803711 C-142 206 -142 206 -144 206 C-142.71345975 203.19831936 -141.3426178 201.06459347 -139.234375 198.8203125 C-138.68080322 198.22806885 -138.12723145 197.6358252 -137.55688477 197.02563477 C-136.96061279 196.39842529 -136.36434082 195.77121582 -135.75 195.125 C-134.82368774 194.14067993 -134.82368774 194.14067993 -133.87866211 193.13647461 C-128.98212332 187.96236409 -123.97618832 182.90171868 -118.88378906 177.92041016 C-116.00087906 175.08327433 -113.26015874 172.18758643 -110.62109375 169.12109375 C-106.12847204 163.92130586 -101.21600868 159.16742177 -96.31640625 154.35546875 C-92.17348074 150.25749361 -88.21667182 146.07505487 -84.42773438 141.64648438 C-83.33483363 140.38613509 -82.17960001 139.17960001 -81 138 C-80.62414175 135.18051289 -80.62414175 135.18051289 -80.5769043 131.82885742 C-80.53313156 130.52957809 -80.48935883 129.23029877 -80.44425964 127.89164734 C-80.42496084 127.194065 -80.40566204 126.49648266 -80.38577843 125.77776146 C-80.32363882 123.58500439 -80.24739789 121.3931612 -80.16694641 119.20100403 C-79.93987716 112.96675107 -79.73136539 106.73206501 -79.54907227 100.49633789 C-79.43651723 96.68061772 -79.30142752 92.86620883 -79.15305519 89.05172157 C-79.10125269 87.60858972 -79.05768448 86.16513433 -79.02310753 84.72148705 C-78.78644612 74.95704859 -77.0735757 66.927398 -73 58 C-72.53745316 56.93424744 -72.07490631 55.86849487 -71.5983429 54.77044678 C-70.32238713 51.84322383 -68.98201506 48.95294208 -67.625 46.0625 C-66.95984375 44.58040039 -66.95984375 44.58040039 -66.28125 43.06835938 C-63.37171394 36.87936053 -60.60242179 32.89675296 -55 29 C-54.09830078 28.35248779 -53.19660156 27.70497559 -52.26757812 27.0378418 C-49.02151074 24.74899425 -45.74015959 22.5183645 -42.4375 20.3125 C-41.55650635 19.72180222 -41.55650635 19.72180222 -40.65771484 19.11917114 C-8.01158513 -2.67052838 -8.01158513 -2.67052838 0 0 Z " fill="#000000" transform="translate(992,1055)"/>
<path d="M0 0 C-1.98303881 7.67883536 -4.33807967 15.14973513 -6.9921875 22.62109375 C-7.37448517 23.7070433 -7.75678284 24.79299286 -8.15066528 25.91184998 C-9.38779408 29.42194173 -10.63088262 32.9298797 -11.875 36.4375 C-12.73704266 38.87318716 -13.59902134 41.30889697 -14.4609375 43.74462891 C-16.1766342 48.59000221 -17.8954937 53.43423961 -19.61621094 58.27783203 C-21.38609913 63.26260363 -23.14336765 68.25160594 -24.89178467 73.24394226 C-33.3941407 97.50238225 -42.94656013 120.49635737 -56.13818359 142.62744141 C-56.75516113 143.66304199 -57.37213867 144.69864258 -58.0078125 145.765625 C-58.83756592 147.13895996 -58.83756592 147.13895996 -59.68408203 148.54003906 C-60.88176348 150.77897009 -61.73506866 152.47946332 -62 155 C-60.48361906 157.04649785 -59.0322375 158.71073429 -57.25 160.5 C-56.2262426 161.57000652 -55.20281423 162.64032793 -54.1796875 163.7109375 C-53.65084961 164.25588867 -53.12201172 164.80083984 -52.57714844 165.36230469 C-50.12785 167.90563192 -47.75292032 170.51512875 -45.375 173.125 C-44.45840659 174.12506715 -43.54174082 175.12506798 -42.625 176.125 C-39.45902663 179.59249464 -36.3136512 183.07778593 -33.1796875 186.57421875 C-31.71206614 188.2075393 -30.23796213 189.83505543 -28.7578125 191.45703125 C-14.49545686 207.12588217 -14.49545686 207.12588217 -10 215 C-24.55312751 213.73066028 -39.33349596 210.04849472 -51 201 C-52.31228772 200.03829475 -53.62623466 199.07885141 -54.94140625 198.12109375 C-64.56507944 191.02275074 -73.41372967 183.3141223 -82 175 C-82.33 175.33 -82.66 175.66 -83 176 C-82.98839844 176.7940625 -82.97679687 177.588125 -82.96484375 178.40625 C-82.92327487 183.10947171 -82.97129161 186.65866565 -85.90234375 190.48046875 C-88.50847555 192.80663695 -91.19923591 194.91263808 -94 197 C-95.92168833 198.57723476 -97.83843035 200.16051674 -99.75 201.75 C-100.66136719 202.48605469 -101.57273437 203.22210937 -102.51171875 203.98046875 C-104.5599752 205.64286841 -106.56650689 207.33846702 -108.5625 209.0625 C-111 211 -111 211 -113 211 C-113.04649637 201.1331743 -113.08195672 191.26637501 -113.10362434 181.39946175 C-113.11402769 176.8170495 -113.12812338 172.23471263 -113.15087891 167.65234375 C-113.17273094 163.22381736 -113.18459452 158.79536314 -113.18975449 154.36678696 C-113.19342817 152.68364197 -113.20060151 151.00050059 -113.21146011 149.31738663 C-113.29121359 136.43409368 -112.10382366 125.84085406 -107.078125 113.890625 C-106.50442169 112.49671539 -106.50442169 112.49671539 -105.91912842 111.074646 C-104.7045083 108.12953034 -103.47741792 105.18980143 -102.25 102.25 C-101.4418997 100.29460482 -100.63460167 98.33887788 -99.828125 96.3828125 C-97.91355978 91.74657102 -95.98243449 87.1175101 -94.04223633 82.49194336 C-93.07223878 80.1727199 -92.11204314 77.84969332 -91.15429688 75.52539062 C-90.61886725 74.24072795 -90.08308988 72.95621011 -89.546875 71.671875 C-89.09666992 70.58487305 -88.64646484 69.49787109 -88.18261719 68.37792969 C-87 66 -87 66 -85 65 C-83.88942268 68.59389374 -83.84952226 71.97633064 -83.81054688 75.72460938 C-83.80225357 76.39176468 -83.79396027 77.05891998 -83.78541565 77.74629211 C-83.76806078 79.1905637 -83.75288164 80.63486271 -83.73963928 82.07917786 C-83.71854655 84.36580596 -83.69152968 86.65229659 -83.66296387 88.93884277 C-83.59325759 94.61673096 -83.53378311 100.29471818 -83.47393799 105.97271729 C-83.42294519 110.77376628 -83.36809892 115.57474124 -83.30812073 120.37568665 C-83.2815963 122.62685935 -83.26075298 124.87803924 -83.2401123 127.12927246 C-83.2235052 128.51131523 -83.206633 129.89335485 -83.18945312 131.27539062 C-83.17692505 132.48022095 -83.16439697 133.68505127 -83.15148926 134.9263916 C-83.025981 137.47286417 -82.74831591 139.57840556 -82 142 C-72.18371589 124.32669012 -63.29525572 106.42973104 -55 88 C-55.95261719 88.2165625 -56.90523437 88.433125 -57.88671875 88.65625 C-59.14097656 88.9346875 -60.39523437 89.213125 -61.6875 89.5 C-62.92886719 89.7784375 -64.17023438 90.056875 -65.44921875 90.34375 C-68.42398218 90.89354126 -70.99368602 91.13795705 -74 91 C-74.83031389 86.34521 -75.42692426 81.57461989 -73.04931641 77.28466797 C-70.09664793 73.17367227 -66.57370175 69.57003516 -63 66 C-62.25234375 65.23558594 -61.5046875 64.47117187 -60.734375 63.68359375 C-59.48576323 62.42760829 -58.22685039 61.18169865 -56.95361328 59.95068359 C-55.12715234 58.12696166 -53.4371733 56.25171734 -51.7578125 54.29296875 C-47.99434917 49.9586935 -44.07734132 45.78666128 -40.125 41.625 C-35.08279985 36.29256814 -30.0860609 30.93245001 -25.203125 25.453125 C-21.9949482 21.88089977 -18.72931212 18.36248398 -15.46240234 14.84399414 C-13.04672705 12.23744395 -10.65007479 9.61933858 -8.3046875 6.94921875 C-7.50289062 6.03785156 -6.70109375 5.12648438 -5.875 4.1875 C-4.81925781 2.97126953 -4.81925781 2.97126953 -3.7421875 1.73046875 C-2 0 -2 0 0 0 Z " fill="#000000" transform="translate(1152,763)"/>
<path d="M0 0 C0.66 0 1.32 0 2 0 C1.66627291 12.96557411 1.09889036 25.90518512 0.265625 38.84765625 C0.19869949 39.88904755 0.13177399 40.93043884 0.06282043 42.00338745 C-0.27626417 47.24123927 -0.6248301 52.478308 -0.98364258 57.71484375 C-2.17881931 75.49926475 -2.63396703 92.64690654 0 110.3125 C0.11627747 111.11830505 0.23255493 111.92411011 0.35235596 112.7543335 C3.42262166 133.47601498 9.08120424 153.63834349 14.61328125 173.80981445 C14.96963076 175.11483834 15.32596449 176.41986653 15.68228149 177.72489929 C16.35159241 180.16597688 17.02842682 182.60500825 17.71395874 185.0415802 C18.01508575 186.13468002 18.31621277 187.22777985 18.62646484 188.35400391 C18.8926059 189.30369049 19.15874695 190.25337708 19.43295288 191.23184204 C20.04526841 194.22098713 20.09868538 196.9569612 20 200 C17.6357791 197.82080508 16.1279989 195.67436564 14.5625 192.875 C11.66551284 187.93350569 8.44687625 183.28491871 5.125 178.625 C1.45365174 173.46756199 -2.20332555 168.30678198 -5.75 163.0625 C-6.38421875 162.12535156 -7.0184375 161.18820312 -7.671875 160.22265625 C-9 158 -9 158 -9 156 C-10.82724609 156.2165625 -10.82724609 156.2165625 -12.69140625 156.4375 C-14.31508014 156.62520796 -15.93877943 156.8126963 -17.5625 157 C-18.76229492 157.14308594 -18.76229492 157.14308594 -19.98632812 157.2890625 C-24.69452167 157.82714176 -29.26147265 158.10176703 -34 158 C-34.99 161.3 -35.98 164.6 -37 168 C-31.06 168 -25.12 168 -19 168 C-24.62017435 173.62017435 -24.62017435 173.62017435 -27.44140625 175.4453125 C-28.09334961 175.87271729 -28.74529297 176.30012207 -29.41699219 176.74047852 C-30.12500977 177.19737061 -30.83302734 177.6542627 -31.5625 178.125 C-33.1635071 179.17725022 -34.76371091 180.23072324 -36.36328125 181.28515625 C-37.69286865 182.15938232 -37.69286865 182.15938232 -39.04931641 183.05126953 C-63.66710549 199.10593459 -63.66710549 199.10593459 -86.66015625 217.34765625 C-87.43230469 217.89292969 -88.20445312 218.43820312 -89 219 C-89.99 218.67 -90.98 218.34 -92 218 C-91.58339111 217.18772949 -91.16678223 216.37545898 -90.73754883 215.53857422 C-73.01787375 180.86700376 -55.80326449 144.8451606 -46 107 C-54.80793307 102.78264222 -63.83670965 99.34569321 -73 96 C-73 95.34 -73 94.68 -73 94 C-70.74146838 92.31071681 -68.47620141 90.73911804 -66.125 89.1875 C-64.65237821 88.19589034 -63.18107334 87.20232278 -61.7109375 86.20703125 C-60.9384668 85.68447754 -60.16599609 85.16192383 -59.37011719 84.62353516 C-48.36016882 77.08169784 -37.58882459 69.12087807 -27 61 C-26.12730469 60.40316406 -25.25460937 59.80632813 -24.35546875 59.19140625 C-21.43392141 56.47334977 -20.35508652 53.69208257 -19.125 50 C-18.8772583 49.30285889 -18.6295166 48.60571777 -18.37426758 47.88745117 C-17.56491385 45.59743103 -16.77975596 43.3002563 -16 41 C-14.90119643 37.76897042 -13.79802036 34.53952282 -12.6875 31.3125 C-12.40527588 30.49040039 -12.12305176 29.66830078 -11.83227539 28.82128906 C-8.39863154 19.00331706 -4.21907318 9.50119724 0 0 Z M-24 115 C-24.81832722 116.89332534 -25.62942268 118.78977733 -26.4375 120.6875 C-26.88996094 121.74324219 -27.34242188 122.79898438 -27.80859375 123.88671875 C-29.19478085 127.24891538 -29.19478085 127.24891538 -30 132 C-26.37 132.99 -22.74 133.98 -19 135 C-20.32 128.4 -21.64 121.8 -23 115 C-23.33 115 -23.66 115 -24 115 Z " fill="#000000" transform="translate(931,779)"/>
<path d="M0 0 C-0.48859497 1.00691895 -0.48859497 1.00691895 -0.98706055 2.03417969 C-7.21981562 14.89324596 -13.39111127 27.77281345 -19.375 40.75 C-24.82076909 52.56009151 -30.44599522 64.27569716 -36.15185547 75.96191406 C-36.46064133 76.59575516 -36.76942719 77.22959625 -37.08757019 77.88264465 C-37.92426667 79.5995189 -38.76320054 81.31530227 -39.60229492 83.03100586 C-40.83885883 85.65770519 -41.95722593 88.2915489 -43 91 C-43.66 91 -44.32 91 -45 91 C-46.42808369 86.90793253 -47.85214285 82.81449396 -49.27246094 78.71972656 C-49.75637735 77.32643703 -50.2413986 75.93353072 -50.72753906 74.54101562 C-51.42542506 72.5413586 -52.1193484 70.54036477 -52.8125 68.5390625 C-53.23144531 67.33459473 -53.65039062 66.13012695 -54.08203125 64.88916016 C-55 62 -55 62 -55 60 C-57.80203311 61.20901429 -60.58993247 62.44048825 -63.375 63.6875 C-64.1690625 64.02716797 -64.963125 64.36683594 -65.78125 64.71679688 C-70.23797326 66.67689879 -70.23797326 66.67689879 -73.44921875 70.17578125 C-74.24833826 74.27339406 -74.90910888 78.3583241 -75.4375 82.5 C-75.61829102 83.91381958 -75.61829102 83.91381958 -75.80273438 85.35620117 C-76.06370687 87.43277268 -76.3204969 89.50987289 -76.57373047 91.58740234 C-76.87098706 93.96715758 -77.1837231 96.34500838 -77.50830078 98.72119141 C-78.03511573 102.58173429 -78.52083551 106.44578258 -79 110.3125 C-79.17329834 111.53324219 -79.34659668 112.75398437 -79.52514648 114.01171875 C-80.45728517 122.01188597 -79.74279821 126.50422485 -75 133 C-74.10516693 134.38484533 -73.21318449 135.77153725 -72.32421875 137.16015625 C-71.44892514 138.46337118 -70.57004196 139.76418272 -69.6875 141.0625 C-69.23310547 141.73732422 -68.77871094 142.41214844 -68.31054688 143.10742188 C-67.2102683 144.74046691 -66.10561338 146.37056203 -65 148 C-63.81406032 146.1706934 -62.62826209 144.34129496 -61.44311523 142.51147461 C-60.4369238 140.9583797 -59.42992091 139.40581021 -58.42211914 137.85375977 C-56.17909575 134.39403437 -53.94363233 130.93270924 -51.78125 127.421875 C-51.1728125 126.43703125 -50.564375 125.4521875 -49.9375 124.4375 C-49.41027344 123.56996094 -48.88304687 122.70242188 -48.33984375 121.80859375 C-47.67662109 120.91333984 -47.67662109 120.91333984 -47 120 C-46.34 120 -45.68 120 -45 120 C-45 138.15 -45 156.3 -45 175 C-50.00447533 174.16592078 -53.93133498 172.97782342 -58.48828125 170.97265625 C-59.54223335 170.51094276 -59.54223335 170.51094276 -60.61747742 170.03990173 C-62.09927082 169.38578893 -63.57921165 168.72746504 -65.05737305 168.06518555 C-67.2860546 167.07425828 -69.52772281 166.11829282 -71.77148438 165.16210938 C-80.84577642 161.17496069 -86.90355943 157.04430484 -93 149 C-94.23855141 147.61467859 -95.48675671 146.23784313 -96.75 144.875 C-105.38364842 134.85916657 -107.17989583 125.57132625 -107.58984375 112.5390625 C-107.62593246 111.55483307 -107.66202118 110.57060364 -107.69920349 109.55654907 C-107.8105917 106.3712863 -107.90684769 103.18584504 -108 100 C-108.0339386 98.92230347 -108.0678772 97.84460693 -108.10284424 96.73425293 C-108.30663587 90.07294527 -108.44239407 83.41402357 -108.51489258 76.75 C-108.54708932 74.46749891 -108.59538329 72.18517719 -108.65844727 69.90332031 C-108.74920578 66.54691417 -108.78833938 63.19337971 -108.81640625 59.8359375 C-108.85455948 58.81833344 -108.89271271 57.80072937 -108.93202209 56.75228882 C-108.91323923 49.97610906 -108.91323923 49.97610906 -106.49656677 47.39306641 C-104.39429228 46.03563213 -102.2867385 45.01441323 -100 44 C-98.49324462 43.20214524 -96.98931317 42.39893798 -95.48803711 41.59082031 C-93.83673526 40.74880316 -92.18304359 39.91146091 -90.52734375 39.078125 C-89.62273911 38.62035675 -88.71813446 38.1625885 -87.78611755 37.69094849 C-84.83966699 36.20439358 -81.88921743 34.72606721 -78.9375 33.25 C-77.92721741 32.74366028 -76.91693481 32.23732056 -75.8760376 31.71563721 C-56.51877992 22.0368177 -36.87166421 13.16735191 -16.9119873 4.80993652 C-15.05542846 4.02348004 -13.20961465 3.21180726 -11.36425781 2.39941406 C-10.28756836 1.92987305 -9.21087891 1.46033203 -8.1015625 0.9765625 C-7.17939941 0.56744629 -6.25723633 0.15833008 -5.30712891 -0.26318359 C-3 -1 -3 -1 0 0 Z " fill="#000000" transform="translate(1058,796)"/>
<path d="M0 0 C4.424847 1.36177978 8.3989918 3.10250507 12.5078125 5.23046875 C13.11454803 5.54397781 13.72128357 5.85748688 14.34640503 6.18049622 C15.6265561 6.84324945 16.90560366 7.50813809 18.18359375 8.17504883 C20.09611086 9.1724342 22.01254089 10.16193907 23.9296875 11.15039062 C31.76250799 15.2072012 39.42662241 19.47268589 47 24 C44.18170585 43.37796887 41.17680183 62.72176766 38.08972168 82.05834961 C37.51185997 85.68000393 36.93570423 89.30192967 36.359375 92.92382812 C35.24118694 99.94947472 34.12121688 106.97483607 33 114 C33.78366943 114.31227539 34.56733887 114.62455078 35.37475586 114.94628906 C36.92423044 115.56821153 38.46943036 116.20131516 40.00390625 116.859375 C42.17906712 117.21111134 42.17906712 117.21111134 44.33984375 115.515625 C45.19707031 114.76796875 46.05429688 114.0203125 46.9375 113.25 C47.89398437 112.43144531 48.85046875 111.61289063 49.8359375 110.76953125 C50.89082772 109.84658582 51.94550519 108.92339717 53 108 C54.76789305 106.47174589 56.53984617 104.94854927 58.31665039 103.43066406 C59.46923506 102.44489874 60.61698676 101.45345085 61.75952148 100.45605469 C65.7769689 97 65.7769689 97 68 97 C68.25784753 103.62505548 67.95718408 109.84989954 66.82421875 116.390625 C64.29497793 129.95322191 64.29497793 129.95322191 67.66015625 142.76025391 C72.37707379 147.70490622 78.11135454 151.00829203 84.05078125 154.296875 C88.72423919 156.99571958 92.91134905 160.28403112 97.1875 163.5625 C102.86295962 167.76600396 108.58789688 171.87070526 114.48046875 175.765625 C115.23263672 176.37664062 115.23263672 176.37664062 116 177 C116 177.66 116 178.32 116 179 C110.83329698 178.38413184 106.55575366 176.76369338 101.81640625 174.74609375 C101.02081299 174.41365158 100.22521973 174.08120941 99.40551758 173.73869324 C96.78875014 172.64399178 94.17570934 171.54066478 91.5625 170.4375 C88.79109095 169.27588641 86.0187266 168.11657315 83.24632263 166.95733643 C81.34185124 166.16082828 79.43768988 165.36357847 77.53382874 164.56561279 C68.71478929 160.87127119 59.86902145 157.24392822 51.01748657 153.6282959 C38.94980431 148.69651491 26.89254667 143.7403809 14.875 138.6875 C13.82642822 138.24937988 12.77785645 137.81125977 11.69750977 137.35986328 C10.74287842 136.95622559 9.78824707 136.55258789 8.8046875 136.13671875 C7.58241455 135.62177856 7.58241455 135.62177856 6.33544922 135.09643555 C5.17940186 134.55369995 5.17940186 134.55369995 4 134 C3.07590332 133.64655518 2.15180664 133.29311035 1.19970703 132.92895508 C-1 131 -1 131 -1.25298405 129.14486217 C-1.13930699 123.82787918 -0.70156827 118.66838458 0.08569336 113.41015625 C0.20112991 112.60399872 0.31656647 111.79784119 0.4355011 110.96725464 C0.81437661 108.33144474 1.20209455 105.69701775 1.58984375 103.0625 C1.85708622 101.21370898 2.12372339 99.36483036 2.38978577 97.51586914 C3.08918587 92.66557337 3.79590209 87.81637321 4.50445557 82.96740723 C5.63677412 75.20827213 6.75693722 67.44736925 7.87893867 59.68673706 C8.26980345 56.98953267 8.66318871 54.29270622 9.05711365 51.59594727 C9.29973651 49.92724949 9.54233715 48.25854849 9.78491211 46.58984375 C9.94783249 45.48139603 9.94783249 45.48139603 10.11404419 44.35055542 C10.4206461 42.23507011 10.7142024 40.11839267 11 38 C11.1096235 37.20280233 11.219247 36.40560467 11.33219242 35.5842495 C11.43300838 34.78859896 11.53382433 33.99294842 11.63769531 33.17318726 C11.73100632 32.45437567 11.82431732 31.73556408 11.92045593 30.99497032 C12.0500787 27.74402309 10.89953752 25.41274027 9.47265625 22.5390625 C8.92802734 21.40855469 8.38339844 20.27804687 7.82226562 19.11328125 C7.24154297 17.96214844 6.66082031 16.81101562 6.0625 15.625 C4.92381886 13.3069251 3.78948042 10.98671032 2.66015625 8.6640625 C2.15105713 7.64779785 1.64195801 6.6315332 1.11743164 5.58447266 C0 3 0 3 0 0 Z " fill="#000000" transform="translate(1003,1059)"/>
<path d="M0 0 C3.05195395 0.63799894 6.08531631 1.33389871 9.11985588 2.05019188 C10.8517894 2.44796837 10.8517894 2.44796837 12.61871147 2.85378075 C15.77983208 3.58163142 18.93902688 4.31722792 22.09752965 5.0563395 C25.45865907 5.84089851 28.82209537 6.61544602 32.18527031 7.39118004 C38.60116346 8.87263818 45.01492746 10.36311111 51.42798799 11.85677785 C58.53870609 13.51246358 65.65178977 15.15786181 72.76508641 16.80242753 C94.34135439 21.79152844 115.91186428 26.80531705 137.47263908 31.86098289 C138.56259524 32.11649138 139.6525514 32.37199987 140.77553654 32.63525105 C145.77753223 33.8081359 150.77912553 34.98268336 155.77990532 36.16074181 C156.66545192 36.36877402 157.55099852 36.57680624 158.46337986 36.79114246 C160.14693531 37.18675232 161.83017432 37.58371197 163.51304913 37.9822073 C167.23708501 38.85732178 170.95940219 39.69057721 174.71583366 40.4153347 C175.99642662 40.66479851 177.27701958 40.91426231 178.59641838 41.17128563 C179.70114998 41.37216286 180.80588158 41.57304008 181.94408989 41.7800045 C183.15535797 42.16741058 183.15535797 42.16741058 184.39109612 42.56264305 C184.72109612 43.55264305 185.05109612 44.54264305 185.39109612 45.56264305 C171.93295411 45.74564895 158.47461519 45.90991545 145.01609612 46.06264305 C143.97025604 46.0745203 142.92441597 46.08639755 141.84688377 46.09863472 C98.65294099 46.58305576 55.46214995 46.64924597 12.26609612 46.62514305 C11.48329812 46.62471882 10.70050013 46.62429459 9.89398098 46.6238575 C-10.27365951 46.61274302 -30.44128225 46.59258506 -50.60890388 46.56264305 C-49.86908022 43.16836354 -49.0539921 41.68680526 -46.48390388 39.31264305 C-43.29021383 36.25526904 -40.37153596 33.06806949 -37.48390388 29.7227993 C-33.16048936 24.74186549 -28.70102299 19.87941924 -24.28077888 14.98451805 C-23.52281013 14.1440493 -22.76484138 13.30358055 -21.98390388 12.43764305 C-21.24011482 11.62295555 -20.49632576 10.80826805 -19.72999763 9.96889305 C-18.35614129 8.41033778 -17.03102154 6.80685638 -15.76906013 5.15639305 C-15.20058357 4.42420555 -14.63210701 3.69201805 -14.04640388 2.93764305 C-13.33290779 1.95924461 -13.33290779 1.95924461 -12.60499763 0.96108055 C-8.92716855 -1.615559 -4.24795873 -0.71212829 0 0 Z " fill="#000000" transform="translate(1353.6089038848877,1035.4373569488525)"/>
<path d="M0 0 C0.91521423 0.19739273 1.83042847 0.39478546 2.77337646 0.59815979 C5.67854833 1.22669179 8.58139075 1.8653557 11.484375 2.50390625 C13.45038604 2.92965938 15.41653071 3.35479594 17.3828125 3.77929688 C19.25532812 4.18564633 21.12772816 4.59252879 23 5 C23.88125549 5.19170273 24.76251099 5.38340546 25.67047119 5.58091736 C26.48852234 5.76102859 27.30657349 5.94113983 28.14941406 6.12670898 C29.22693939 6.36320412 29.22693939 6.36320412 30.32623291 6.60447693 C31.98538813 7.00613069 33.61489681 7.52658019 35.234375 8.06640625 C35.234375 13.67640625 35.234375 19.28640625 35.234375 25.06640625 C33.23375 24.75703125 31.233125 24.44765625 29.171875 24.12890625 C24.52998609 23.41108838 19.88459944 22.72795459 15.234375 22.06640625 C15.14525345 22.69628952 15.0561319 23.32617279 14.96430969 23.97514343 C14.01837746 30.64653587 13.05845006 37.31581633 12.09106445 43.98413086 C11.73377053 46.45922083 11.37982072 48.9347963 11.02954102 51.41088867 C9.27648522 63.7876131 7.4440761 76.09546321 4.58984375 88.2734375 C4.38490799 89.15754807 4.17997223 90.04165863 3.96882629 90.95256042 C3.46101256 93.00916385 2.85746108 95.04174426 2.234375 97.06640625 C1.244375 97.56140625 1.244375 97.56140625 0.234375 98.06640625 C-1.71866385 81.64166968 -3.18084918 65.16935133 -4.68432617 48.69891357 C-5.03177502 44.89681582 -5.38121597 41.09490115 -5.73046875 37.29296875 C-6.41075866 29.88428826 -7.08890781 22.47541402 -7.765625 15.06640625 C-8.29544983 15.21896378 -8.82527466 15.3715213 -9.37115479 15.52870178 C-14.88325751 17.11376173 -20.39916067 18.6850164 -25.91748047 20.24829102 C-27.97675793 20.83361913 -30.03503834 21.42246688 -32.09228516 22.01489258 C-35.04855726 22.86555168 -38.00817728 23.70351226 -40.96875 24.5390625 C-41.88867737 24.80670914 -42.80860474 25.07435577 -43.75640869 25.35011292 C-44.6169989 25.59043747 -45.47758911 25.83076202 -46.36425781 26.07836914 C-47.11926575 26.29376846 -47.87427368 26.50916779 -48.65216064 26.73109436 C-50.99621758 27.10299094 -52.52655035 26.79560491 -54.765625 26.06640625 C-46.44816969 18.95255679 -37.6866984 12.65869294 -28.69970703 6.43066406 C-27.00781195 5.23723946 -25.35026506 3.99542051 -23.69921875 2.74609375 C-22.85488281 2.10929688 -22.01054688 1.4725 -21.140625 0.81640625 C-20.44710937 0.275 -19.75359375 -0.26640625 -19.0390625 -0.82421875 C-13.18491719 -3.68088072 -6.06251053 -1.34508413 0 0 Z " fill="#000000" transform="translate(914.765625,982.93359375)"/>
<path d="M0 0 C0 0.66 0 1.32 0 2 C-1.50228149 2.74721313 -1.50228149 2.74721313 -3.03491211 3.50952148 C-6.84003178 5.40285907 -10.64371366 7.29907074 -14.44702148 9.19604492 C-16.07652859 10.0083225 -17.70639729 10.8198752 -19.33666992 11.63061523 C-21.71374406 12.81291423 -24.0894512 13.99792029 -26.46484375 15.18359375 C-27.66879288 15.78220718 -27.66879288 15.78220718 -28.89706421 16.39291382 C-32.67862643 18.28476668 -36.42319955 20.21114962 -40.10595703 22.28955078 C-52.21253757 29.09104196 -64.87023879 33.55938942 -78 38 C-79.36326373 38.46441626 -80.72639827 38.92921187 -82.0894165 39.39434814 C-91.09690877 42.4659549 -100.11761597 45.49674373 -109.14624023 48.50561523 C-113.09203468 49.82081094 -117.03496365 51.14439694 -120.97733021 52.4698267 C-124.04797956 53.50076539 -127.12041704 54.52628799 -130.19339561 55.55026054 C-131.65048395 56.03674032 -133.10692836 56.52515341 -134.56269264 57.01558113 C-136.57616122 57.69325219 -138.59200861 58.363312 -140.60864258 59.03149414 C-141.7501326 59.41294083 -142.89162262 59.79438751 -144.06770325 60.18739319 C-147 61 -147 61 -151 61 C-149.89048563 57.6714569 -149.05336997 56.95485246 -146.421875 54.76953125 C-142.22596066 51.20972948 -138.23638141 47.47839778 -134.25 43.6875 C-129.39349062 39.11413096 -124.51883645 34.57375239 -119.4375 30.25 C-118.54933594 29.49203125 -117.66117188 28.7340625 -116.74609375 27.953125 C-109.68065889 22.9279224 -101.50359434 21.55928128 -93.1796875 19.70703125 C-91.80918151 19.39697233 -90.43880242 19.08635203 -89.06854248 18.77520752 C-85.42319091 17.94935641 -81.77597954 17.13203291 -78.12824249 16.31679153 C-75.12233954 15.64404929 -72.11748115 14.96670632 -69.11260796 14.28938198 C-59.74502191 12.17814769 -50.37342099 10.08515765 -41 8 C-39.85313721 7.74468506 -38.70627441 7.48937012 -37.5246582 7.22631836 C-31.2274851 5.82582089 -24.92778859 4.43749182 -18.625 3.0625 C-17.87345642 2.89746979 -17.12191284 2.73243958 -16.34759521 2.56240845 C-14.2873804 2.111221 -12.22602699 1.66576884 -10.1640625 1.22265625 C-8.50044678 0.86312866 -8.50044678 0.86312866 -6.80322266 0.49633789 C-4 0 -4 0 0 0 Z " fill="#000000" transform="translate(1230,974)"/>
<path d="M0 0 C2.81176599 3.40632443 5.28373468 6.88103827 7.625 10.625 C9.39012092 13.43840234 11.15755588 16.23633383 13 19 C13.1953125 21.91796875 13.1953125 21.91796875 13.125 25.1875 C13.10695313 26.27417969 13.08890625 27.36085938 13.0703125 28.48046875 C13.04710937 29.31191406 13.02390625 30.14335938 13 31 C16.3 31.33 19.6 31.66 23 32 C22.91878906 31.154375 22.83757813 30.30875 22.75390625 29.4375 C22.17359813 19.01563987 22.17359813 19.01563987 26.0625 14.5625 C27.34105018 13.33852208 28.65447938 12.14995076 30 11 C30.96679688 10.10087891 30.96679688 10.10087891 31.953125 9.18359375 C36.57352088 5 36.57352088 5 39 5 C39.59768556 25.33561525 40.19357326 45.65329931 40 66 C36.40827676 64.64584941 33.12698105 63.06053659 29.8125 61.125 C28.95269531 60.63257813 28.09289062 60.14015625 27.20703125 59.6328125 C24.80210469 57.8535925 23.9099131 56.82967196 23 54 C23.0234375 51.640625 23.0234375 51.640625 23.375 49.25 C23.48585938 48.45078125 23.59671875 47.6515625 23.7109375 46.828125 C23.80632813 46.22484375 23.90171875 45.6215625 24 45 C23.01 45.495 23.01 45.495 22 46 C20.46331135 46.22467831 18.92031946 46.40796805 17.375 46.5625 C16.55773437 46.64628906 15.74046875 46.73007812 14.8984375 46.81640625 C14.27195312 46.87699219 13.64546875 46.93757812 13 47 C12.97421875 47.67546875 12.9484375 48.3509375 12.921875 49.046875 C12.86515625 49.93890625 12.8084375 50.8309375 12.75 51.75 C12.68039062 53.07257813 12.68039062 53.07257813 12.609375 54.421875 C11.53807308 58.95430621 8.55097048 60.63134087 4.80078125 63.140625 C3.64155056 63.8495543 2.47870437 64.55260204 1.3125 65.25 C0.71888672 65.61351562 0.12527344 65.97703125 -0.48632812 66.3515625 C-4.85226739 69 -4.85226739 69 -6 69 C-6.14732952 60.47137854 -5.71910087 52.10429683 -4.94140625 43.61328125 C-4.77849342 41.77784004 -4.77849342 41.77784004 -4.61228943 39.90531921 C-4.38367902 37.34460631 -4.15245107 34.78412583 -3.91870117 32.22387695 C-3.56008217 28.28595031 -3.21212237 24.34717867 -2.86523438 20.40820312 C-2.64125426 17.91400591 -2.41666714 15.41986312 -2.19140625 12.92578125 C-2.08719864 11.74365555 -1.98299103 10.56152985 -1.87562561 9.34358215 C-1.77559738 8.26122787 -1.67556915 7.1788736 -1.57250977 6.0637207 C-1.48590591 5.10730179 -1.39930206 4.15088287 -1.31007385 3.16548157 C-1 1 -1 1 0 0 Z " fill="#000000" transform="translate(969,976)"/>
<path d="M0 0 C5.11922948 0.39481845 8.81735541 1.63849672 13.30078125 4.08984375 C14.44224609 4.70923828 15.58371094 5.32863281 16.75976562 5.96679688 C17.34282471 6.290271 17.92588379 6.61374512 18.52661133 6.94702148 C20.31972132 7.94150505 22.12076515 8.92018219 23.92382812 9.89648438 C32.69055451 14.69055451 32.69055451 14.69055451 35 17 C35.125 20.125 35.125 20.125 35 23 C34.41154297 22.86795166 33.82308594 22.73590332 33.21679688 22.59985352 C26.65808214 21.19926793 20.18089038 20.45522399 13.5 19.9375 C11.55178926 19.78362696 9.60385072 19.62625449 7.65625 19.46484375 C6.38491211 19.36610962 6.38491211 19.36610962 5.08789062 19.26538086 C3 19 3 19 1 18 C1 20.64 1 23.28 1 26 C2.39025391 26.38091797 2.39025391 26.38091797 3.80859375 26.76953125 C5.00613281 27.11371094 6.20367188 27.45789063 7.4375 27.8125 C9.22994141 28.31716797 9.22994141 28.31716797 11.05859375 28.83203125 C12.51458984 29.41017578 12.51458984 29.41017578 14 30 C14.495 31.485 14.495 31.485 15 33 C13.23050388 33.50471197 11.45934777 34.00360685 9.6875 34.5 C8.70136719 34.7784375 7.71523437 35.056875 6.69921875 35.34375 C4 36 4 36 1 36 C0.67 40.62 0.34 45.24 0 50 C2.03542969 49.13375 4.07085938 48.2675 6.16796875 47.375 C8.14957906 46.53887161 10.13245517 45.70581754 12.11547852 44.87304688 C13.48922774 44.29421723 14.86164621 43.71221835 16.23266602 43.12695312 C18.20765338 42.28452108 20.18720209 41.45373621 22.16796875 40.625 C23.35672607 40.12226562 24.5454834 39.61953125 25.77026367 39.1015625 C28.78290829 38.07404322 30.85750081 37.75129438 34 38 C31.01092889 42.06805288 27.61996741 45.09655696 23.625 48.125 C22.37696084 49.07988892 21.12958493 50.03564524 19.8828125 50.9921875 C19.24375977 51.48170898 18.60470703 51.97123047 17.94628906 52.47558594 C15.987921 54.00946078 14.08102173 55.59145928 12.1796875 57.1953125 C11.56270996 57.70690918 10.94573242 58.21850586 10.31005859 58.74560547 C9.12726986 59.72865702 7.95509755 60.72466295 6.79541016 61.73486328 C4.06755285 63.97029237 2.56618397 65.01833497 -1.015625 64.90234375 C-2.00046875 64.60457031 -2.9853125 64.30679687 -4 64 C-5.55460937 63.62294922 -5.55460937 63.62294922 -7.140625 63.23828125 C-8.16671875 62.93277344 -9.1928125 62.62726563 -10.25 62.3125 C-11.28640625 62.01988281 -12.3228125 61.72726562 -13.390625 61.42578125 C-16 60 -16 60 -17.3203125 57.1953125 C-18.3141391 52.52318516 -18.69040809 47.99417686 -18.89013672 43.22460938 C-18.97102867 41.58663717 -19.07808882 39.94990581 -19.19970703 38.31445312 C-20.47375404 20.61377219 -20.47375404 20.61377219 -17.05078125 14.54296875 C-14.51224346 12.01220596 -11.9573168 10.01768706 -9 8 C-7.46395245 6.66311582 -5.9414295 5.31041568 -4.4375 3.9375 C-3.29199788 2.95794587 -2.14626322 1.97866338 -1 1 C-0.67 0.67 -0.34 0.34 0 0 Z " fill="#000000" transform="translate(1041,979)"/>
</svg>
